<svg width="30" height="30" viewBox="0 0 30 30" fill="none" xmlns="http://www.w3.org/2000/svg">
<path fill-rule="evenodd" clip-rule="evenodd" d="M19.5 30V24.99C17.2207 26.3095 14.6337 27.0043 12 27.0043C9.36634 27.0043 6.77929 26.3095 4.5 24.99V30H19.5ZM29.1213 0.87868C29.6839 1.44129 30 2.20435 30 3C30 3.96 29.535 4.86 28.755 5.43C29.58 7.5 30 9.75 30 12C30 17.79 27.21 23.25 22.5 26.61V28.5H21V25.83C21.525 25.5 22.02 25.125 22.5 24.75C27.99 20.19 29.955 12.645 27.36 6H27C26.4496 6.00262 25.9092 5.85355 25.4379 5.56915C24.9667 5.28476 24.583 4.87603 24.3288 4.38784C24.0746 3.89966 23.9599 3.35088 23.9971 2.80175C24.0344 2.25263 24.2222 1.72438 24.54 1.275C24.84 0.87 25.23 0.54 25.68 0.315C26.085 0.105 26.535 0 27 0C27.7957 0 28.5587 0.31607 29.1213 0.87868ZM23.0866 16.5922C23.6896 15.1363 24 13.5759 24 12C24 8.8174 22.7357 5.76516 20.4853 3.51472C18.2348 1.26428 15.1826 0 12 0C8.8174 0 5.76516 1.26428 3.51472 3.51472C1.26428 5.76516 0 8.8174 0 12C0 15.1826 1.26428 18.2348 3.51472 20.4853C5.76516 22.7357 8.8174 24 12 24C13.5759 24 15.1363 23.6896 16.5922 23.0866C18.0481 22.4835 19.371 21.5996 20.4853 20.4853C21.5996 19.371 22.4835 18.0481 23.0866 16.5922ZM13.8478 12.7654C13.9483 12.5227 14 12.2626 14 12C14 11.4696 13.7893 10.9609 13.4142 10.5858C13.0391 10.2107 12.5304 10 12 10C11.4696 10 10.9609 10.2107 10.5858 10.5858C10.2107 10.9609 10 11.4696 10 12C10 12.5304 10.2107 13.0391 10.5858 13.4142C10.9609 13.7893 11.4696 14 12 14C12.2626 14 12.5227 13.9483 12.7654 13.8478C13.008 13.7472 13.2285 13.5999 13.4142 13.4142C13.5999 13.2285 13.7472 13.008 13.8478 12.7654Z" fill="#2B2B2B"/>
</svg>
