<svg width="30" height="30" viewBox="0 0 30 30" fill="none" xmlns="http://www.w3.org/2000/svg">
<path d="M10.4569 10.9008H2.09139C1.53672 10.9008 1.00476 11.1212 0.612553 11.5134C0.220342 11.9056 0 12.4375 0 12.9922V17.175C0 17.7296 0.220342 18.2616 0.612553 18.6538C1.00476 19.046 1.53672 19.2664 2.09139 19.2664H3.13708V23.4491C3.13708 23.7265 3.24725 23.9924 3.44336 24.1886C3.63946 24.3847 3.90544 24.4948 4.18277 24.4948H6.27416C6.5515 24.4948 6.81747 24.3847 7.01358 24.1886C7.20968 23.9924 7.31985 23.7265 7.31985 23.4491V19.2664H10.4569L15.6854 23.4491V6.71804L10.4569 10.9008ZM20.391 15.0836C20.391 16.8717 19.3872 18.4925 17.7768 19.2664V10.9008C19.3767 11.6851 20.391 13.3059 20.391 15.0836Z" fill="#2B2B2B"/>
<path d="M25.3675 15.0001C25.3675 11.1442 23.0105 7.84223 19.6651 6.4465L18.7744 8.58625C21.2835 9.63441 23.0485 12.1109 23.0485 15.0001C23.0485 17.8947 21.2835 20.3658 18.769 21.4139L19.6597 23.5537C23.0105 22.1579 25.3675 18.856 25.3675 15.0001ZM21.4464 2.16699L20.5503 4.30675C24.7375 6.05005 27.681 10.1775 27.681 15.0001C27.681 19.8172 24.7375 23.9501 20.5503 25.6934L21.441 27.8332C26.4699 25.7369 30 20.7839 30 15.0001C30 9.21623 26.4699 4.2633 21.4464 2.16699Z" fill="#2B2B2B"/>
</svg>
