<svg width="30" height="30" viewBox="0 0 30 30" fill="none" xmlns="http://www.w3.org/2000/svg">
<path d="M25.5 4.84479C23.835 4.84479 22.5 6.17979 22.5 7.84479V17.9848C21.54 18.8398 21 20.0698 21 21.3448C21 23.8348 23.01 25.8448 25.5 25.8448C27.99 25.8448 30 23.8348 30 21.3448C30 20.0698 29.46 18.8398 28.5 17.9998V7.84479C28.5 6.17979 27.165 4.84479 25.5 4.84479ZM25.5 6.34479C26.325 6.34479 27 7.01979 27 7.84479V9.34479H24V7.84479C24 7.01979 24.675 6.34479 25.5 6.34479ZM9 2.65479L7.875 3.91479C7.875 3.91479 5.955 6.08979 4.02 8.90979C2.085 11.7298 0 15.1048 0 18.3448C0 23.3098 4.035 27.3448 9 27.3448C13.965 27.3448 18 23.3098 18 18.3448C18 15.1048 15.915 11.7298 13.98 8.90979C12.045 6.08979 10.125 3.91479 10.125 3.91479L9 2.65479ZM9 7.34979C9.66 8.12979 10.26 8.77479 11.52 10.6048C13.335 13.2448 15 16.6048 15 18.3448C15 21.6748 12.33 24.3448 9 24.3448C5.67 24.3448 3 21.6748 3 18.3448C3 16.6048 4.665 13.2448 6.48 10.6048C7.74 8.77479 8.34 8.12979 9 7.34979Z" fill="#2B2B2B"/>
</svg>
