<svg width="30" height="30" viewBox="0 0 30 30" fill="none" xmlns="http://www.w3.org/2000/svg">
<path d="M16 27.6923C15.6923 26.7692 15.3846 25.6923 15.3846 24.6154C15.3846 22.3077 16.3077 20.1538 17.6923 18.4615H15.3846V15.3846H18.4615V17.6923C19.3846 16.9231 20.4615 16.3077 21.5385 15.8462V0H0V27.6923H9.23077V22.3077H12.3077V27.6923H16ZM15.3846 3.07692H18.4615V6.15385H15.3846V3.07692ZM15.3846 9.23077H18.4615V12.3077H15.3846V9.23077ZM6.15385 24.6154H3.07692V21.5385H6.15385V24.6154ZM6.15385 18.4615H3.07692V15.3846H6.15385V18.4615ZM6.15385 12.3077H3.07692V9.23077H6.15385V12.3077ZM6.15385 6.15385H3.07692V3.07692H6.15385V6.15385ZM9.23077 3.07692H12.3077V6.15385H9.23077V3.07692ZM9.23077 9.23077H12.3077V12.3077H9.23077V9.23077ZM9.23077 18.4615V15.3846H12.3077V18.4615H9.23077ZM30 21.3846L26.7692 24.6154L30 27.8462L27.8462 30L24.6154 26.7692L21.3846 30L19.2308 27.8462L22.4615 24.6154L19.2308 21.3846L21.3846 19.2308L24.6154 22.4615L27.8462 19.2308L30 21.3846Z" fill="#2B2B2B"/>
</svg>
