<svg width="30" height="30" viewBox="0 0 30 30" fill="none" xmlns="http://www.w3.org/2000/svg">
<path d="M14.4164 0.0400654C14.609 -0.0181066 14.8151 -0.0128128 15.0044 0.0551649C15.1937 0.123143 15.3562 0.2502 15.4677 0.417571L18.3965 4.81013L23.6991 2.57385C23.8723 2.50104 24.0634 2.48195 24.2475 2.51906C24.4317 2.55616 24.6005 2.64775 24.732 2.78194C24.8635 2.91613 24.9516 3.08674 24.985 3.27163C25.0184 3.45653 24.9954 3.64718 24.9191 3.81887L23.0066 8.12518H27.8129C27.991 8.12524 28.1655 8.17606 28.3158 8.27168C28.4661 8.3673 28.586 8.50377 28.6616 8.6651C28.7371 8.82642 28.7651 9.00593 28.7423 9.18261C28.7196 9.35929 28.6469 9.52582 28.5329 9.6627L25.9204 12.7977L29.7679 17.1953C29.8865 17.3308 29.9636 17.4976 29.9899 17.6758C30.0163 17.8539 29.9907 18.0359 29.9163 18.1999C29.842 18.3639 29.7219 18.5031 29.5706 18.6007C29.4193 18.6983 29.243 18.7502 29.0629 18.7503H23.4403C23.1917 18.7503 22.9532 18.6515 22.7774 18.4757C22.6016 18.2999 22.5028 18.0615 22.5028 17.8128C22.5028 17.5642 22.6016 17.3257 22.7774 17.1499C22.9532 16.9741 23.1917 16.8753 23.4403 16.8753H26.9966L23.9828 13.4302C23.8358 13.2623 23.7535 13.0474 23.7508 12.8243C23.748 12.6011 23.825 12.3842 23.9678 12.2127L25.8116 10.0002H21.5628C21.4066 10.0002 21.2528 9.96109 21.1155 9.88652C20.9783 9.81195 20.8618 9.70426 20.7767 9.57323C20.6916 9.4422 20.6407 9.29199 20.6284 9.13624C20.6161 8.9805 20.643 8.82416 20.7065 8.68143L22.2441 5.22264L18.4103 6.83891C18.2092 6.92383 17.9849 6.93597 17.7758 6.87322C17.5668 6.81047 17.3862 6.67676 17.2652 6.49515L15.6252 4.03387V7.81267C15.6252 8.06132 15.5264 8.29978 15.3506 8.47559C15.1748 8.65141 14.9363 8.75018 14.6877 8.75018C14.4391 8.75018 14.2006 8.65141 14.0248 8.47559C13.849 8.29978 13.7502 8.06132 13.7502 7.81267V0.937578C13.7502 0.736272 13.8149 0.540306 13.9349 0.378669C14.0549 0.217032 14.2238 0.0983098 14.4164 0.0400654ZM2.68379 15.0003L3.07879 12.8227C3.22287 12.0304 3.64055 11.3138 4.25897 10.798C4.87738 10.2821 5.65727 9.9998 6.46259 10.0002H14.1652C15.8265 10.0002 17.2502 11.1877 17.5465 12.8227L17.9465 15.0178C18.0056 15.0077 18.0653 15.0018 18.1252 15.0003H19.6878C19.9364 15.0003 20.1749 15.099 20.3507 15.2749C20.5265 15.4507 20.6253 15.6891 20.6253 15.9378C20.6253 16.1864 20.5265 16.4249 20.3507 16.6007C20.1749 16.7765 19.9364 16.8753 19.6878 16.8753H19.164C19.6154 17.1924 19.9838 17.6136 20.2381 18.1031C20.4925 18.5926 20.6253 19.1362 20.6253 19.6878V27.8129C20.6253 28.3931 20.3948 28.9495 19.9846 29.3598C19.5743 29.77 19.0179 30.0005 18.4378 30.0005H16.5627C15.9826 30.0005 15.4261 29.77 15.0159 29.3598C14.6057 28.9495 14.3752 28.3931 14.3752 27.8129V26.2504H6.25009V27.8129C6.25009 28.3931 6.01961 28.9495 5.60937 29.3598C5.19913 29.77 4.64272 30.0005 4.06256 30.0005H2.18753C1.60736 30.0005 1.05095 29.77 0.640713 29.3598C0.230471 28.9495 0 28.3931 0 27.8129V25.6254C0 25.5721 0.00416671 25.52 0.0125002 25.4692C0.00506867 25.4174 0.000893752 25.3652 0 25.3129V19.6878C0 18.5253 0.577508 17.4978 1.46002 16.8753H0.937513C0.688869 16.8753 0.450409 16.7765 0.274591 16.6007C0.0987733 16.4249 0 16.1864 0 15.9378C0 15.6891 0.0987733 15.4507 0.274591 15.2749C0.450409 15.099 0.688869 15.0003 0.937513 15.0003H2.68379ZM4.92382 13.1577L4.36256 16.2503H16.264L15.7015 13.1577C15.6359 12.7978 15.4461 12.4722 15.1651 12.2379C14.8841 12.0035 14.5298 11.8752 14.1639 11.8752H6.46259C6.0967 11.8752 5.74239 12.0035 5.46142 12.2379C5.18045 12.4722 4.98938 12.7978 4.92382 13.1577ZM18.7503 26.2504H16.2502V27.8129C16.2502 27.9854 16.3902 28.1254 16.5627 28.1254H18.4378C18.5206 28.1254 18.6001 28.0925 18.6587 28.0339C18.7173 27.9753 18.7503 27.8958 18.7503 27.8129V26.2504ZM1.87503 27.8129C1.87503 27.9854 2.01503 28.1254 2.18753 28.1254H4.06256C4.14544 28.1254 4.22492 28.0925 4.28353 28.0339C4.34214 27.9753 4.37506 27.8958 4.37506 27.8129V26.2504H1.87503V27.8129ZM15.6252 22.5004C15.9567 22.5004 16.2747 22.3687 16.5091 22.1343C16.7435 21.8998 16.8752 21.5819 16.8752 21.2504C16.8752 20.9188 16.7435 20.6009 16.5091 20.3665C16.2747 20.132 15.9567 20.0003 15.6252 20.0003C15.2937 20.0003 14.9757 20.132 14.7413 20.3665C14.5069 20.6009 14.3752 20.9188 14.3752 21.2504C14.3752 21.5819 14.5069 21.8998 14.7413 22.1343C14.9757 22.3687 15.2937 22.5004 15.6252 22.5004ZM6.25009 21.2504C6.25009 20.9188 6.11839 20.6009 5.88396 20.3665C5.64954 20.132 5.33159 20.0003 5.00007 20.0003C4.66854 20.0003 4.3506 20.132 4.11617 20.3665C3.88175 20.6009 3.75005 20.9188 3.75005 21.2504C3.75005 21.5819 3.88175 21.8998 4.11617 22.1343C4.3506 22.3687 4.66854 22.5004 5.00007 22.5004C5.33159 22.5004 5.64954 22.3687 5.88396 22.1343C6.11839 21.8998 6.25009 21.5819 6.25009 21.2504ZM8.43762 21.2504C8.18897 21.2504 7.95051 21.3491 7.77469 21.5249C7.59888 21.7008 7.5001 21.9392 7.5001 22.1879C7.5001 22.4365 7.59888 22.675 7.77469 22.8508C7.95051 23.0266 8.18897 23.1254 8.43762 23.1254H12.1877C12.4363 23.1254 12.6748 23.0266 12.8506 22.8508C13.0264 22.675 13.1252 22.4365 13.1252 22.1879C13.1252 21.9392 13.0264 21.7008 12.8506 21.5249C12.6748 21.3491 12.4363 21.2504 12.1877 21.2504H8.43762Z" fill="#2B2B2B"/>
</svg>
