<svg width="30" height="30" viewBox="0 0 30 30" fill="none" xmlns="http://www.w3.org/2000/svg">
<path fill-rule="evenodd" clip-rule="evenodd" d="M16.5374 22.1884L20.4465 23.1631C20.067 23.0679 19.7384 22.785 19.4792 22.3304C19.2198 21.8752 19.0351 21.2567 18.9357 20.5104C18.8363 19.764 18.8242 18.9044 18.9001 17.9805C18.9759 17.0566 19.1383 16.0866 19.3778 15.1258C19.6173 14.1651 19.9294 13.2324 20.2962 12.3811C20.6629 11.5297 21.0772 10.7764 21.5153 10.164C21.9535 9.55168 22.4069 9.09234 22.8497 8.81222C23.2925 8.53211 23.716 8.43671 24.0961 8.53148L16.6997 6.68735C16.6464 6.67407 16.5923 6.66452 16.5374 6.65869V22.1884Z" fill="#2B2B2B"/>
<path fill-rule="evenodd" clip-rule="evenodd" d="M7.67178 5.96567C11.836 5.96567 15.2117 4.63021 15.2117 2.98284C15.2117 1.33546 11.836 0 7.67178 0C3.50759 0 0.131836 1.33546 0.131836 2.98284C0.131836 4.63021 3.50759 5.96567 7.67178 5.96567ZM12.0632 3.57939C12.896 3.57939 13.5712 3.31229 13.5712 2.98282C13.5712 2.65334 12.896 2.38625 12.0632 2.38625C11.2303 2.38625 10.5552 2.65334 10.5552 2.98282C10.5552 3.31229 11.2303 3.57939 12.0632 3.57939Z" fill="#2B2B2B"/>
<ellipse cx="25.1501" cy="14.9147" rx="7.53995" ry="2.98284" transform="rotate(104 25.1501 14.9147)" fill="#2B2B2B"/>
<path fill-rule="evenodd" clip-rule="evenodd" d="M15.2117 16.9043V21.8742H0.131836V16.9028C0.131836 17.2945 0.326862 17.6824 0.70578 18.0443C1.0847 18.4062 1.64009 18.735 2.34023 19.012C3.04038 19.289 3.87158 19.5087 4.78637 19.6586C5.70116 19.8085 6.68162 19.8857 7.67178 19.8857C8.66194 19.8857 9.64241 19.8085 10.5572 19.6586C11.472 19.5087 12.3032 19.289 13.0033 19.012C13.7035 18.735 14.2589 18.4062 14.6378 18.0443C15.0162 17.6829 15.2112 17.2955 15.2117 16.9043ZM14.6378 23.0157C15.0167 22.6538 15.2117 22.2659 15.2117 21.8742L0.131836 21.8742C0.131836 22.2659 0.326862 22.6538 0.70578 23.0157C1.0847 23.3776 1.64009 23.7064 2.34023 23.9834C3.04038 24.2604 3.87158 24.4801 4.78637 24.63C5.70116 24.7799 6.68162 24.8571 7.67178 24.8571C8.66194 24.8571 9.64241 24.7799 10.5572 24.63C11.472 24.4801 12.3032 24.2604 13.0033 23.9834C13.7035 23.7064 14.2589 23.3776 14.6378 23.0157Z" fill="#2B2B2B"/>
<path fill-rule="evenodd" clip-rule="evenodd" d="M15.2117 10.6075V15.5774C15.2117 15.9691 15.0167 16.3569 14.6378 16.7188C14.2589 17.0807 13.7035 17.4096 13.0033 17.6865C12.3032 17.9635 11.472 18.1832 10.5572 18.3331C9.64241 18.483 8.66194 18.5602 7.67178 18.5602C6.68162 18.5602 5.70116 18.483 4.78637 18.3331C3.87158 18.1832 3.04038 17.9635 2.34023 17.6865C1.64009 17.4096 1.0847 17.0807 0.70578 16.7188C0.326862 16.3569 0.131836 15.9691 0.131836 15.5774V10.606C0.131836 10.9977 0.326862 11.3855 0.70578 11.7474C1.0847 12.1093 1.64009 12.4382 2.34023 12.7151C3.04038 12.9921 3.87158 13.2118 4.78637 13.3617C5.70116 13.5116 6.68162 13.5888 7.67178 13.5888C8.66194 13.5888 9.64241 13.5116 10.5572 13.3617C11.472 13.2118 12.3032 12.9921 13.0033 12.7151C13.7035 12.4382 14.2589 12.1093 14.6378 11.7474C15.0162 11.386 15.2112 10.9987 15.2117 10.6075Z" fill="#2B2B2B"/>
<path fill-rule="evenodd" clip-rule="evenodd" d="M15.2117 4.31009V9.27999H0.131836V4.30859C0.131836 4.70031 0.326862 5.08818 0.70578 5.45008C1.0847 5.81197 1.64009 6.1408 2.34023 6.41778C3.04038 6.69476 3.87158 6.91447 4.78637 7.06437C5.70116 7.21428 6.68162 7.29143 7.67178 7.29143C8.66194 7.29143 9.64241 7.21428 10.5572 7.06437C11.472 6.91447 12.3032 6.69476 13.0033 6.41778C13.7035 6.1408 14.2589 5.81197 14.6378 5.45008C15.0162 5.08864 15.2112 4.7013 15.2117 4.31009ZM14.6378 10.4215C15.0167 10.0596 15.2117 9.6717 15.2117 9.27999L0.131836 9.27999C0.131836 9.6717 0.326862 10.0596 0.70578 10.4215C1.0847 10.7834 1.64009 11.1122 2.34023 11.3892C3.04038 11.6662 3.87158 11.8859 4.78637 12.0358C5.70116 12.1857 6.68162 12.2628 7.67178 12.2628C8.66194 12.2628 9.64241 12.1857 10.5572 12.0358C11.472 11.8859 12.3032 11.6662 13.0033 11.3892C13.7035 11.1122 14.2589 10.7834 14.6378 10.4215Z" fill="#2B2B2B"/>
<path d="M14.5902 25.8099C19.3534 25.3528 19.1207 23.3063 19.6031 22.5371C20.5265 22.6836 25.3584 23.246 27.2438 25.0569C29.6006 27.3205 25.8481 29.8184 20.4316 29.9942C15.0152 30.17 8.63626 26.3813 14.5902 25.8099Z" fill="#2B2B2B"/>
</svg>
