<svg width="30" height="30" viewBox="0 0 30 30" fill="none" xmlns="http://www.w3.org/2000/svg">
<path d="M11.465 10.8333C12.305 9.81667 13.5767 9.16667 15 9.16667C16.4233 9.16667 17.695 9.81667 18.535 10.8333C19.088 11.5039 19.439 12.3178 19.547 13.1802C19.655 14.0427 19.5155 14.918 19.1448 15.7042C18.7742 16.4904 18.1876 17.1549 17.4536 17.6204C16.7196 18.0858 15.8683 18.333 14.9992 18.333C14.13 18.333 13.2788 18.0858 12.5447 17.6204C11.8107 17.1549 11.2241 16.4904 10.8535 15.7042C10.4828 14.918 10.3434 14.0427 10.4513 13.1802C10.5593 12.3178 10.9103 11.5039 11.4633 10.8333M21.2483 13.75C21.2483 12.6967 20.9883 11.7033 20.5283 10.8333H27.5C28.163 10.8333 28.7989 11.0967 29.2678 11.5656C29.7366 12.0344 30 12.6703 30 13.3333V14.1667C30 16.8117 27.99 19.52 24.475 20.4733C24.1138 19.8245 23.5857 19.2839 22.9454 18.9077C22.3052 18.5314 21.576 18.3331 20.8333 18.3333H19.25C19.8817 17.7488 20.3856 17.0398 20.7298 16.251C21.074 15.4622 21.2511 14.6106 21.25 13.75M20.8333 20C21.1619 19.9991 21.4874 20.0632 21.7911 20.1885C22.0948 20.3138 22.3707 20.4979 22.6031 20.7303C22.8354 20.9626 23.0195 21.2385 23.1448 21.5423C23.2701 21.846 23.3342 22.1714 23.3333 22.5V23.3333C23.3333 26.6183 20.2333 30 15 30C9.76667 30 6.66667 26.6183 6.66667 23.3333V22.5C6.66579 22.1714 6.72985 21.846 6.85518 21.5423C6.9805 21.2385 7.16462 20.9626 7.39694 20.7303C7.62926 20.4979 7.90521 20.3138 8.20892 20.1885C8.51263 20.0632 8.83811 19.9991 9.16667 20H20.8333ZM0 14.1667C0 16.8117 2.01 19.52 5.525 20.4733C5.88622 19.8245 6.41429 19.2839 7.05456 18.9077C7.69483 18.5314 8.42403 18.3331 9.16667 18.3333H10.75C10.1183 17.7488 9.61444 17.0398 9.27023 16.251C8.92602 15.4622 8.74889 14.6106 8.75 13.75C8.75 12.6967 9.01 11.7033 9.47167 10.8333H2.5C1.83696 10.8333 1.20107 11.0967 0.732233 11.5656C0.263392 12.0344 0 12.6703 0 13.3333V14.1667ZM12.9167 4.58333C12.9167 3.36776 12.4338 2.20197 11.5742 1.34243C10.7147 0.482886 9.54891 0 8.33333 0C7.11776 0 5.95197 0.482886 5.09243 1.34243C4.23289 2.20197 3.75 3.36776 3.75 4.58333C3.75 5.79891 4.23289 6.9647 5.09243 7.82424C5.95197 8.68378 7.11776 9.16667 8.33333 9.16667C9.54891 9.16667 10.7147 8.68378 11.5742 7.82424C12.4338 6.9647 12.9167 5.79891 12.9167 4.58333ZM26.25 4.58333C26.25 3.36776 25.7671 2.20197 24.9076 1.34243C24.048 0.482886 22.8822 0 21.6667 0C20.4511 0 19.2853 0.482886 18.4258 1.34243C17.5662 2.20197 17.0833 3.36776 17.0833 4.58333C17.0833 5.79891 17.5662 6.9647 18.4258 7.82424C19.2853 8.68378 20.4511 9.16667 21.6667 9.16667C22.8822 9.16667 24.048 8.68378 24.9076 7.82424C25.7671 6.9647 26.25 5.79891 26.25 4.58333Z" fill="#2B2B2B"/>
</svg>
