<svg width="30" height="30" viewBox="0 0 30 30" fill="none" xmlns="http://www.w3.org/2000/svg">
<path d="M24.426 9.78996C23.9695 7.62782 22.7837 5.68829 21.0673 4.29644C19.3509 2.9046 17.2082 2.14502 14.9984 2.14502C12.7886 2.14502 10.646 2.9046 8.92956 4.29644C7.21316 5.68829 6.02734 7.62782 5.57084 9.78996C4.00244 10.1168 2.59365 10.9719 1.57976 12.2124C0.565862 13.4528 0.00823464 15.0036 0 16.6057V18.2126C0 18.4968 0.11287 18.7693 0.313781 18.9702C0.514692 19.1711 0.787185 19.284 1.07132 19.284H13.9271C14.2112 19.284 14.4837 19.1711 14.6846 18.9702C14.8855 18.7693 14.9984 18.4968 14.9984 18.2126C14.9984 17.9285 14.8855 17.656 14.6846 17.4551C14.4837 17.2542 14.2112 17.1413 13.9271 17.1413H2.14263V16.6089C2.14812 15.3983 2.60704 14.2338 3.42886 13.3449C4.25069 12.4561 5.37576 11.9074 6.58216 11.8073L7.45636 11.7387L7.56242 10.8688C7.78604 9.05399 8.66556 7.38361 10.0353 6.17229C11.405 4.96098 13.1704 4.29234 14.999 4.29234C16.8275 4.29234 18.5929 4.96098 19.9626 6.17229C21.3323 7.38361 22.2119 9.05399 22.4355 10.8688L22.5416 11.7398L23.4147 11.8073C24.6582 11.9019 25.8165 12.4753 26.646 13.4066C27.4754 14.3379 27.9113 15.5547 27.8618 16.8008C27.8124 18.047 27.2816 19.2254 26.3811 20.0881C25.4805 20.9509 24.2804 21.4307 23.0333 21.4266H5.35658C5.07245 21.4266 4.79995 21.5395 4.59904 21.7404C4.39813 21.9413 4.28526 22.2138 4.28526 22.4979C4.28526 22.782 4.39813 23.0545 4.59904 23.2554C4.79995 23.4564 5.07245 23.5692 5.35658 23.5692H23.0333C24.7591 23.5711 26.4241 22.9316 27.7049 21.7749C28.9858 20.6182 29.7912 19.0269 29.9647 17.3098C30.1383 15.5927 29.6676 13.8724 28.6441 12.4828C27.6206 11.0932 26.1173 10.1335 24.426 9.78996Z" fill="#2B2B2B"/>
<path d="M18.2124 25.7119H1.07132C0.479644 25.7119 0 26.1916 0 26.7832C0 27.3749 0.479644 27.8545 1.07132 27.8545H18.2124C18.804 27.8545 19.2837 27.3749 19.2837 26.7832C19.2837 26.1916 18.804 25.7119 18.2124 25.7119Z" fill="#2B2B2B"/>
</svg>
