<svg width="30" height="30" viewBox="0 0 30 30" fill="none" xmlns="http://www.w3.org/2000/svg">
<path d="M25.1504 0H3.02812C2.16687 0.00125 1.44687 0.290625 0.868125 0.868125C0.289375 1.44562 0 2.16562 0 3.02812V25.1504L6.97789 18.1725H5.40938V13.3406C5.40813 12.5506 5.67875 11.8844 6.22125 11.3419C6.76375 10.7994 7.43063 10.5281 8.22188 10.5281H10.0969C10.8869 10.5281 11.5531 10.7994 12.0956 11.3419C12.4051 11.6514 12.6263 12.0011 12.7592 12.3911L25.1504 0ZM10.5712 8.22563C10.19 8.60688 9.71938 8.7975 9.15938 8.7975C8.59938 8.7975 8.12875 8.6075 7.7475 8.2275C7.36625 7.8475 7.17563 7.37688 7.17563 6.81563C7.17563 6.25438 7.36625 5.78375 7.7475 5.40375C8.12875 5.02375 8.59938 4.83313 9.15938 4.83188C9.71938 4.83063 10.1894 5.02125 10.5694 5.40375C10.9494 5.78625 11.14 6.25688 11.1413 6.81563C11.1425 7.37438 10.9525 7.84438 10.5712 8.22563ZM11.2205 18.1725H12.9094V16.4837L19.8765 9.51658L18.21 12.1875H24.195L21.5096 7.88344L28.808 0.585074C28.9205 0.670146 29.0285 0.764497 29.1319 0.868125C29.7094 1.44687 29.9988 2.16687 30 3.02812V26.9719C30 27.8344 29.7113 28.5544 29.1338 29.1319C28.5562 29.7094 27.8356 29.9988 26.9719 30H3.02812C2.16562 30 1.44562 29.7113 0.868125 29.1338C0.764308 29.0299 0.669802 28.9215 0.584608 28.8084L7.28438 22.1087V25.3125H11.0344V18.3587L11.2205 18.1725ZM24.195 17.8125L21.2025 22.6088L18.21 17.8125H24.195Z" fill="#2B2B2B"/>
<path d="M25.1504 0H3.02812C2.16687 0.00125 1.44687 0.290625 0.868125 0.868125C0.289375 1.44562 0 2.16562 0 3.02812V25.1504L6.97789 18.1725H5.40938V13.3406C5.40813 12.5506 5.67875 11.8844 6.22125 11.3419C6.76375 10.7994 7.43063 10.5281 8.22188 10.5281H10.0969C10.8869 10.5281 11.5531 10.7994 12.0956 11.3419C12.4051 11.6514 12.6263 12.0011 12.7592 12.3911L25.1504 0ZM10.5712 8.22563C10.19 8.60688 9.71938 8.7975 9.15938 8.7975C8.59938 8.7975 8.12875 8.6075 7.7475 8.2275C7.36625 7.8475 7.17563 7.37688 7.17563 6.81563C7.17563 6.25438 7.36625 5.78375 7.7475 5.40375C8.12875 5.02375 8.59938 4.83313 9.15938 4.83188C9.71938 4.83063 10.1894 5.02125 10.5694 5.40375C10.9494 5.78625 11.14 6.25688 11.1413 6.81563C11.1425 7.37438 10.9525 7.84438 10.5712 8.22563ZM11.2205 18.1725H12.9094V16.4837L19.8765 9.51658L18.21 12.1875H24.195L21.5096 7.88344L28.808 0.585074C28.9205 0.670146 29.0285 0.764497 29.1319 0.868125C29.7094 1.44687 29.9988 2.16687 30 3.02812V26.9719C30 27.8344 29.7113 28.5544 29.1338 29.1319C28.5562 29.7094 27.8356 29.9988 26.9719 30H3.02812C2.16562 30 1.44562 29.7113 0.868125 29.1338C0.764308 29.0299 0.669802 28.9215 0.584608 28.8084L7.28438 22.1087V25.3125H11.0344V18.3587L11.2205 18.1725ZM24.195 17.8125L21.2025 22.6088L18.21 17.8125H24.195Z" stroke="white"/>
</svg>
