<svg width="30" height="30" viewBox="0 0 30 30" fill="none" xmlns="http://www.w3.org/2000/svg">
<path d="M14.9979 0C19.6253 0 24.2526 0 28.88 0C29.5874 0 29.9958 0.412689 30 1.12016C30 10.3762 30 19.6322 30 28.8883C30 29.5831 29.5832 30 28.8968 30H1.10316C0.412632 30 0 29.5831 0 28.8925C0 19.6364 0 10.3804 0 1.12437C0 0.41269 0.408421 0 1.11579 0C5.74316 0 10.3705 0 14.9979 0ZM20.1305 28.5766C20.1318 28.577 20.133 28.5773 20.1343 28.5777C20.207 28.5983 20.2278 28.6145 20.2526 28.6145C21.2168 28.6145 22.1768 28.6188 23.1411 28.6145C23.2253 28.6145 23.3347 28.5387 23.3895 28.4672C23.7979 27.966 24.1853 27.4481 24.5979 26.9469C24.7368 26.7785 24.7789 26.6101 24.7789 26.3995C24.7789 21.2114 24.7789 16.0233 24.7705 10.8352C24.7705 10.4015 24.8168 10.0056 25.0442 9.60977C25.3305 9.11286 25.2421 8.60331 24.9137 8.13167C24.8421 8.02639 24.7832 7.88742 24.7832 7.76109C24.7747 5.74818 24.7789 3.73526 24.7789 1.72656V1.40651H7.60421V1.83184C7.60421 8.36749 7.60421 14.9031 7.60421 21.4346C7.60421 21.6409 7.58737 21.7841 7.35158 21.8725C6.71158 22.1126 6.34526 22.6727 6.34526 23.3254C6.34526 24.0118 6.74105 24.5887 7.39789 24.8372C7.55368 24.8961 7.60842 24.9761 7.60421 25.1404C7.59158 25.5699 7.59158 25.9994 7.60421 26.4248C7.60842 26.6058 7.54105 26.7111 7.39789 26.808C6.60632 27.3344 5.81895 27.8734 5.03158 28.4082C4.96 28.4587 4.89263 28.5177 4.82526 28.5682C4.83368 28.5851 4.84211 28.6019 4.85053 28.6188H5.16211C9.22105 28.6188 13.28 28.6188 17.3389 28.623C17.6295 28.623 17.8484 28.5345 18.0716 28.3619C18.5853 27.9745 19.1074 27.587 19.6589 27.2544C20.1011 26.9891 20.6105 26.8627 21.1411 26.9259C21.4779 26.9638 21.5789 27.1743 21.3853 27.4523C21.2968 27.5786 21.1789 27.6881 21.0611 27.7934C20.7674 28.0493 20.4654 28.2969 20.1343 28.5777C20.133 28.5787 20.1318 28.5798 20.1305 28.5809" fill="#2B2B2B"/>
<path d="M20.1343 28.5777C20.207 28.5983 20.2278 28.6145 20.2526 28.6145C21.2168 28.6145 22.1768 28.6188 23.1411 28.6145C23.2253 28.6145 23.3347 28.5387 23.3895 28.4672C23.7979 27.966 24.1853 27.4481 24.5979 26.9469C24.7368 26.7785 24.7789 26.6101 24.7789 26.3995C24.7789 21.2114 24.7789 16.0233 24.7705 10.8352C24.7705 10.4015 24.8168 10.0056 25.0442 9.60977C25.3305 9.11286 25.2421 8.60331 24.9137 8.13167C24.8421 8.02639 24.7832 7.88742 24.7832 7.76109C24.7747 5.74818 24.7789 3.73526 24.7789 1.72656V1.40651H7.60421V1.83184V21.4346C7.60421 21.6409 7.58737 21.7841 7.35158 21.8725C6.71158 22.1126 6.34526 22.6727 6.34526 23.3254C6.34526 24.0118 6.74105 24.5887 7.39789 24.8372C7.55368 24.8961 7.60842 24.9761 7.60421 25.1404C7.59158 25.5699 7.59158 25.9994 7.60421 26.4248C7.60842 26.6058 7.54105 26.7111 7.39789 26.808C6.60632 27.3344 5.81895 27.8734 5.03158 28.4082C4.96 28.4587 4.89263 28.5177 4.82526 28.5682L4.85053 28.6188H5.16211C9.22105 28.6188 13.28 28.6188 17.3389 28.623C17.6295 28.623 17.8484 28.5345 18.0716 28.3619C18.5853 27.9745 19.1074 27.587 19.6589 27.2544C20.1011 26.9891 20.6105 26.8627 21.1411 26.9259C21.4779 26.9638 21.5789 27.1743 21.3853 27.4523C21.2968 27.5786 21.1789 27.6881 21.0611 27.7934C20.7674 28.0493 20.4654 28.2969 20.1343 28.5777Z" fill="#2B2B2B"/>
<path d="M20.1334 28.5765C20.4661 28.2986 20.7693 28.0501 21.0641 27.7932C21.182 27.6922 21.2999 27.5785 21.3883 27.4521C21.582 27.1784 21.481 26.9636 21.1441 26.9257C20.6135 26.8626 20.1039 26.9889 19.6575 27.2542C19.1059 27.5869 18.5879 27.9743 18.07 28.3617C17.8426 28.5302 17.6278 28.6228 17.3372 28.6228C13.2777 28.6144 9.21818 28.6144 5.15867 28.6144H4.84704C4.84704 28.6144 4.8302 28.5807 4.82178 28.5639C4.88916 28.5091 4.95653 28.4502 5.02812 28.4038C5.8156 27.869 6.60308 27.3342 7.39477 26.8036C7.54216 26.7068 7.60533 26.6015 7.60112 26.4204C7.58848 25.9909 7.58848 25.5613 7.60112 25.136C7.60533 24.9718 7.55058 24.8918 7.39477 24.8328C6.73784 24.5886 6.34199 24.0074 6.34199 23.321C6.34199 22.6683 6.70836 22.1082 7.34845 21.8682C7.58427 21.7798 7.60112 21.6366 7.60112 21.4302C7.60112 14.8946 7.60112 8.35893 7.60112 1.82327V1.39795H24.7783V1.71799C24.7783 3.73091 24.7783 5.74382 24.7825 7.75253C24.7825 7.87886 24.8372 8.01783 24.913 8.1231C25.2457 8.59475 25.3299 9.10429 25.0436 9.60121C24.8162 9.99705 24.7698 10.3887 24.7698 10.8266C24.7783 16.0147 24.7698 21.2028 24.7783 26.3909C24.7783 26.6015 24.7319 26.7699 24.5972 26.9384C24.1845 27.4395 23.7971 27.9533 23.3886 28.4586C23.3296 28.5302 23.2244 28.606 23.1401 28.606C22.1758 28.6144 21.2157 28.6102 20.2513 28.606C20.226 28.606 20.205 28.5933 20.1292 28.5681M19.2912 12.3763C19.9818 12.7301 20.6303 13.0501 21.2704 13.387C22.0073 13.7744 22.5337 13.627 22.917 12.8817C23.5065 11.732 24.0834 10.5782 24.6604 9.42013C24.8962 8.94427 24.7193 8.3884 24.2729 8.15679C23.8055 7.91676 23.2496 8.10626 23.0012 8.58633C22.7696 9.03692 22.5422 9.49172 22.3148 9.94231C22.0621 10.4392 21.8052 10.9319 21.5441 11.4457C21.4431 11.3994 21.3546 11.3615 21.2704 11.3193C20.205 10.7761 19.1354 10.2371 18.0742 9.69385C17.7289 9.51698 17.3878 9.47487 17.0172 9.59699C15.6612 10.0434 14.301 10.4855 12.9408 10.9235C12.6208 11.0288 12.4102 11.2267 12.2797 11.5425C11.6775 12.9827 11.0584 14.4145 10.4563 15.8589C10.3889 16.0189 10.3594 16.2211 10.3847 16.3895C10.4563 16.8191 10.7805 17.1054 11.1764 17.1433C11.5933 17.1812 11.9386 16.9622 12.1154 16.5369C12.5576 15.4926 13.0292 14.4566 13.4251 13.3954C13.6525 12.789 13.9599 12.3721 14.6337 12.2879C14.8021 12.2668 14.9664 12.1826 15.1306 12.1321C15.1938 12.1152 15.2569 12.111 15.3538 12.0984C15.3159 12.2037 15.299 12.2795 15.2653 12.3511C14.0947 15.143 12.9282 17.935 11.7491 20.7228C11.6985 20.8365 11.5638 20.9544 11.4417 20.9923C10.1741 21.4134 8.90656 21.8177 7.6348 22.2261C7.28949 22.3356 7.02419 22.5462 6.89786 22.8831C6.73362 23.321 6.77574 23.7463 7.09999 24.1085C7.43688 24.4833 7.86642 24.5886 8.34227 24.437C9.8667 23.9443 11.3869 23.4305 12.9155 22.942C13.4335 22.7736 13.783 22.4535 14.0146 21.9693C14.3642 21.2281 14.7263 20.4912 15.0843 19.75C15.2653 19.3752 15.4506 19.0004 15.6317 18.6298C15.6865 18.6425 15.7117 18.6425 15.737 18.6509C16.8656 19.1183 17.9942 19.5816 19.1227 20.0574C19.1985 20.0869 19.2701 20.2048 19.2828 20.2848C19.367 21.1186 19.4344 21.9524 19.5102 22.7862C19.5944 23.7169 19.6912 24.6475 19.7544 25.5782C19.8049 26.2688 20.344 26.7994 21.0051 26.7531C21.6747 26.7068 22.1547 26.1172 22.0916 25.4266C22.041 24.8707 21.9863 24.3148 21.9358 23.759C21.7799 22.1335 21.6283 20.508 21.4641 18.8867C21.422 18.453 21.1862 18.1414 20.7777 17.9729C19.767 17.5644 18.7564 17.156 17.7457 16.7433C17.6699 16.7138 17.5941 16.6675 17.5057 16.6253C18.1121 15.2062 18.7058 13.8123 19.3164 12.3848M20.6008 7.58829C20.5461 6.5692 19.8428 5.79436 18.7858 5.79436C17.6278 5.79436 16.954 6.72922 16.9835 7.63882C17.0172 8.62423 17.7962 9.44118 18.7816 9.41171C19.8555 9.38223 20.5545 8.60738 20.6008 7.58829Z" fill="white"/>
</svg>
