<svg width="30" height="30" viewBox="0 0 30 30" fill="none" xmlns="http://www.w3.org/2000/svg">
<path d="M8.26528 0H10.1653L13.0153 1.44444L10.1653 2.88889V3.84944C11.5618 3.69778 13.1863 3.61111 14.9153 3.61111C16.6443 3.61111 18.2688 3.69778 19.6653 3.84944V0H21.5653L24.4153 1.44444L21.5653 2.88889V4.12389C23.3228 4.45611 24.4153 4.91111 24.4153 5.41667C24.4153 6.41333 20.1403 7.22222 14.9153 7.22222C9.69028 7.22222 5.41528 6.41333 5.41528 5.41667C5.41528 4.91111 6.50778 4.45611 8.26528 4.12389V0ZM14.9153 4.69444C11.7708 4.69444 10.1653 4.81722 10.1653 5.41667C10.1653 6.01611 11.7708 6.13889 14.9153 6.13889C18.0598 6.13889 19.6653 6.01611 19.6653 5.41667C19.6653 4.81722 18.0598 4.69444 14.9153 4.69444ZM14.9153 8.48611C18.5348 8.48611 21.7553 8.00222 23.8453 7.25833L22.5153 13H17.7653V11.5556C17.7653 11.1725 17.5651 10.8051 17.2088 10.5342C16.8525 10.2633 16.3692 10.1111 15.8653 10.1111H13.9653C13.4614 10.1111 12.9781 10.2633 12.6218 10.5342C12.2655 10.8051 12.0653 11.1725 12.0653 11.5556V13H7.31528L5.98528 7.25833C8.07528 8.00222 11.2958 8.48611 14.9153 8.48611Z" fill="#2B2B2B"/>
<path d="M14.0846 22.4996L15.2096 19.1246H21.9597L23.0847 22.4996M21.9597 26.2497C21.6613 26.2497 21.3752 26.1312 21.1642 25.9202C20.9532 25.7092 20.8347 25.4231 20.8347 25.1247C20.8347 24.8263 20.9532 24.5402 21.1642 24.3292C21.3752 24.1182 21.6613 23.9997 21.9597 23.9997C22.2581 23.9997 22.5442 24.1182 22.7552 24.3292C22.9662 24.5402 23.0847 24.8263 23.0847 25.1247C23.0847 25.4231 22.9662 25.7092 22.7552 25.9202C22.5442 26.1312 22.2581 26.2497 21.9597 26.2497ZM15.2096 26.2497C14.9112 26.2497 14.6251 26.1312 14.4141 25.9202C14.2031 25.7092 14.0846 25.4231 14.0846 25.1247C14.0846 24.8263 14.2031 24.5402 14.4141 24.3292C14.6251 24.1182 14.9112 23.9997 15.2096 23.9997C15.508 23.9997 15.7941 24.1182 16.0051 24.3292C16.2161 24.5402 16.3346 24.8263 16.3346 25.1247C16.3346 25.4231 16.2161 25.7092 16.0051 25.9202C15.7941 26.1312 15.508 26.2497 15.2096 26.2497ZM23.0247 18.7496C22.8672 18.2996 22.4397 17.9996 21.9597 17.9996H15.2096C14.7296 17.9996 14.3021 18.2996 14.1446 18.7496L12.5845 23.2496V29.2498C12.5845 29.4487 12.6636 29.6394 12.8042 29.7801C12.9449 29.9208 13.1356 29.9998 13.3346 29.9998H14.0846C14.2835 29.9998 14.4743 29.9208 14.6149 29.7801C14.7556 29.6394 14.8346 29.4487 14.8346 29.2498V28.4997H22.3347V29.2498C22.3347 29.4487 22.4137 29.6394 22.5544 29.7801C22.695 29.9208 22.8858 29.9998 23.0847 29.9998H23.8347C24.0337 29.9998 24.2244 29.9208 24.3651 29.7801C24.5057 29.6394 24.5848 29.4487 24.5848 29.2498V23.2496L23.0247 18.7496ZM19.2747 16.4995C19.1172 16.0495 18.6897 15.7495 18.2096 15.7495H11.4595C10.9795 15.7495 10.552 16.0495 10.3945 16.4995L8.83447 20.9996V26.9997C8.83447 27.1986 8.91349 27.3894 9.05415 27.5301C9.1948 27.6707 9.38557 27.7497 9.58449 27.7497H10.3345C10.5334 27.7497 10.7242 27.6707 10.8648 27.5301C11.0055 27.3894 11.0845 27.1986 11.0845 26.9997V23.9322C10.946 23.8827 10.8185 23.8063 10.7096 23.7075C10.6006 23.6086 10.5122 23.4892 10.4495 23.3561C10.3868 23.223 10.3509 23.0788 10.3441 22.9319C10.3372 22.7849 10.3595 22.638 10.4095 22.4996C10.5745 22.0496 10.987 21.7496 11.4595 21.7496H11.512L12.037 20.2496H10.3345L11.4595 16.8745H19.4022L19.2747 16.4995Z" fill="#2B2B2B"/>
</svg>
