<svg width="30" height="30" viewBox="0 0 30 30" fill="none" xmlns="http://www.w3.org/2000/svg">
<path d="M20.9879 8.8956C20.8049 8.70971 20.6574 8.48202 20.5605 8.22223C20.3066 8.53503 19.9559 8.76272 19.5453 8.84745C18.5721 9.04901 17.6297 8.37228 17.4405 7.33609C17.3283 6.72244 17.5057 6.12036 17.8711 5.68961C16.8978 5.8908 15.9556 5.21407 15.7663 4.17825C15.66 3.5967 15.8138 3.02523 16.1411 2.60045C14.5605 1.63145 12.7272 1.07715 10.7723 1.07715C4.82299 1.07715 0 6.21106 0 12.5439C0 17.9589 3.52642 22.4971 8.26789 23.699C8.25404 23.6699 8.24071 23.6404 8.22809 23.6102C7.82483 22.646 8.23212 21.5165 9.13788 21.0869C8.7788 20.9995 8.44813 20.7954 8.19758 20.496C5.09879 19.3594 2.87262 16.2284 2.87262 12.5439C2.87262 7.89972 6.40938 4.13495 10.7723 4.13495C15.1352 4.13495 18.672 7.89972 18.672 12.5439C18.672 14.3322 18.1474 15.9903 17.2534 17.3531C17.9966 17.2825 18.7327 17.7137 19.0532 18.48C19.2283 18.8988 19.2506 19.3486 19.1456 19.7588C20.6459 17.7883 21.5446 15.2777 21.5446 12.5439C21.5446 11.2685 21.349 10.0415 20.9879 8.8956Z" fill="#2B2B2B"/>
<path d="M4.0575 12.5439C4.0575 15.3397 5.56552 17.7607 7.76294 18.9354C7.85253 18.3142 8.22809 17.7525 8.80773 17.4778C9.34424 17.2236 9.93528 17.2721 10.4118 17.5543C10.0086 16.5901 10.416 15.4606 11.3218 15.0314C12.1231 14.6514 13.0458 14.947 13.5273 15.6872C13.7086 15.3218 14.0021 15.0161 14.3843 14.835C15.2883 14.4065 16.3473 14.838 16.7523 15.7984C17.222 14.8223 17.4871 13.716 17.4871 12.5439C17.4871 8.59624 14.4807 5.39622 10.7723 5.39622C7.06389 5.39622 4.0575 8.59624 4.0575 12.5439Z" fill="#2B2B2B"/>
<path d="M27.0711 14.0275C27.2014 13.8972 27.2943 13.7401 27.3293 13.5908C27.3643 13.4415 27.3386 13.3123 27.2578 13.2314C27.177 13.1506 27.0477 13.1249 26.8984 13.1599C26.7492 13.1949 26.5921 13.2878 26.4617 13.4181L24.3228 15.5571C23.7564 16.1234 23.3286 16.7937 23.1119 17.4545C22.8953 18.1154 22.903 18.7262 23.1338 19.1836L15.7141 26.6033C15.5837 26.7336 15.4908 26.8907 15.4558 27.04C15.4208 27.1893 15.4466 27.3186 15.5274 27.3994C15.6082 27.4802 15.7374 27.5059 15.8867 27.4709C16.036 27.4359 16.1931 27.343 16.3234 27.2127L23.7432 19.7929C24.2006 20.0238 24.8114 20.0315 25.4722 19.8148C26.1331 19.5981 26.8034 19.1704 27.3697 18.6039L29.5086 16.465C29.6389 16.3347 29.7318 16.1776 29.7668 16.0283C29.8018 15.879 29.7761 15.7497 29.6953 15.6689C29.6145 15.5881 29.4852 15.5624 29.3359 15.5974C29.1867 15.6324 29.0296 15.7253 28.8992 15.8556L26.7603 17.9946C26.4554 18.2996 26.0994 18.5386 25.7412 18.6785C25.383 18.8184 25.0403 18.8524 24.7603 18.7758C24.4804 18.6991 24.2276 18.4464 24.151 18.1664C24.0743 17.8865 24.1083 17.5438 24.2482 17.1856C24.3882 16.8274 24.6271 16.4713 24.9322 16.1664L27.0711 14.0275Z" fill="#2B2B2B"/>
</svg>
