<svg width="30" height="30" viewBox="0 0 30 30" fill="none" xmlns="http://www.w3.org/2000/svg">
<path fill-rule="evenodd" clip-rule="evenodd" d="M27.55 7.03333L27.5333 7.05C28.2833 7.8 28.75 8.85 28.75 10V25.8333C28.75 26.3805 28.6422 26.9223 28.4328 27.4278C28.2234 27.9334 27.9165 28.3927 27.5296 28.7796C27.1427 29.1665 26.6834 29.4734 26.1778 29.6828C25.6723 29.8922 25.1305 30 24.5833 30C23.4783 30 22.4185 29.561 21.6371 28.7796C20.8557 27.9982 20.4167 26.9384 20.4167 25.8333V17.5H17.9167V30H1.25V3.33333C1.25 1.48333 2.73333 0 4.58333 0H14.5833C15.4674 0 16.3152 0.351189 16.9404 0.976311C17.5655 1.60143 17.9167 2.44928 17.9167 3.33333V15H19.5833C20.4674 15 21.3152 15.3512 21.9404 15.9763C22.5655 16.6014 22.9167 17.4493 22.9167 18.3333V25.8333C22.9167 26.2754 23.0923 26.6993 23.4048 27.0118C23.7174 27.3244 24.1413 27.5 24.5833 27.5C25.0254 27.5 25.4493 27.3244 25.7618 27.0118C26.0744 26.6993 26.25 26.2754 26.25 25.8333V13.8167C25.7333 14.0333 25.1833 14.1667 24.5833 14.1667C23.4783 14.1667 22.4185 13.7277 21.6371 12.9463C21.2501 12.5594 20.9432 12.1 20.7338 11.5945C20.5244 11.089 20.4167 10.5472 20.4167 10C20.4167 8.21667 21.5333 6.66667 23.1 6.11667L19.5833 2.6L21.35 0.833333L27.55 7.03333ZM23.4048 11.1785C23.7174 11.4911 24.1413 11.6667 24.5833 11.6667C25.0254 11.6667 25.4493 11.4911 25.7618 11.1785C26.0744 10.8659 26.25 10.442 26.25 10C26.25 9.55797 26.0744 9.13405 25.7618 8.82149C25.4493 8.50893 25.0254 8.33333 24.5833 8.33333C24.1413 8.33333 23.7174 8.50893 23.4048 8.82149C23.0923 9.13405 22.9167 9.55797 22.9167 10C22.9167 10.442 23.0923 10.8659 23.4048 11.1785ZM4.58333 11.6667H14.5833V3.33333H4.58333V11.6667ZM13.8125 27.1567L16.25 24.7192L12.1875 20.6567L16.25 16.5942L13.8125 14.1567L9.75 18.2192L5.6875 14.1567L3.25 16.5942L7.3125 20.6567L3.25 24.7192L5.6875 27.1567L9.75 23.0942L13.8125 27.1567Z" fill="#2B2B2B"/>
</svg>
