<svg width="30" height="30" viewBox="0 0 30 30" fill="none" xmlns="http://www.w3.org/2000/svg">
<path d="M28.5 14.7263L22.7818 15.2621L25.0636 10.0419L20.7538 13.8028L19.5011 8.25L18.2473 13.8023L13.9383 10.0404L16.2198 15.2621L10.5 14.7246L15.4436 17.6192L10.501 20.5194L16.2192 19.9837L13.9387 25.2081L18.2485 21.4472L19.5013 27L20.7537 21.4435L25.0626 25.2054L22.7812 19.9836L28.4996 20.5169L23.556 17.6223L28.5 14.7263Z" fill="#2B2B2B"/>
<path fill-rule="evenodd" clip-rule="evenodd" d="M1.5 25.5V9C1.5 7.9314 1.81879 7.00305 2.45618 6.2157C3.09375 5.42798 3.89996 4.9032 4.875 4.64062V2.25C4.875 1.6311 5.09546 1.10193 5.53656 0.661377C5.97748 0.221191 6.50702 0.000732422 7.125 0H13.875C14.1176 0 14.3465 0.0340576 14.5618 0.101807C14.8956 0.206909 15.1965 0.393311 15.4645 0.661377C15.9056 1.10266 16.1257 1.63184 16.125 2.25V4.64062C17.1 4.9032 17.9062 5.42798 18.5438 6.2157C18.6427 6.33783 18.7339 6.46335 18.8174 6.59225L17.6209 11.8909L11.1575 6.24809L14.5796 14.0807L6 13.2744L11.5089 16.5H3.75C3.33579 16.5 3 16.8358 3 17.25C3 17.6642 3.33579 18 3.75 18H12.7615L6.00143 21.9667L14.5788 21.1631L11.1581 28.9997L17.6228 23.3583L18.6883 28.081C18.5389 28.2884 18.3688 28.4873 18.1782 28.678C17.2969 29.5594 16.2374 30 15 30H6C4.76257 30 3.70312 29.5594 2.82184 28.678C1.94055 27.7969 1.5 26.7374 1.5 25.5ZM7.125 4.5H9.375C9.375 4.1814 9.48303 3.91443 9.69891 3.6991C9.91498 3.48376 10.1819 3.37573 10.5 3.375C10.8181 3.37427 11.0854 3.4823 11.3022 3.6991C11.5188 3.91589 11.6265 4.18286 11.625 4.5H13.875V2.25H7.125V4.5Z" fill="#2B2B2B"/>
</svg>
