<svg width="30" height="30" viewBox="0 0 30 30" fill="none" xmlns="http://www.w3.org/2000/svg">
<path d="M26.685 20.115C28.11 16.86 28.11 13.125 26.685 9.885L22.575 11.745C23.475 13.815 23.475 16.17 22.59 18.255L26.685 20.115ZM20.13 3.315C18.5142 2.61007 16.7704 2.24621 15.0075 2.24621C13.2446 2.24621 11.5008 2.61007 9.885 3.315L11.745 7.41C13.83 6.525 16.185 6.525 18.27 7.425L20.13 3.315ZM3.315 9.87C2.60969 11.4883 2.24567 13.2347 2.24567 15C2.24567 16.7653 2.60969 18.5117 3.315 20.13L7.425 18.255C6.525 16.185 6.525 13.815 7.425 11.73L3.315 9.87ZM9.885 26.685C11.5009 27.3911 13.2457 27.7544 15.0091 27.7518C16.7725 27.7492 18.5162 27.3808 20.13 26.67L18.27 22.575C17.2426 23.0189 16.1357 23.2492 15.0165 23.2518C13.8974 23.2543 12.7894 23.0292 11.76 22.59L9.885 26.685ZM15 0C16.9698 0 18.9204 0.387987 20.7403 1.14181C22.5601 1.89563 24.2137 3.00052 25.6066 4.3934C26.9995 5.78628 28.1044 7.43986 28.8582 9.25975C29.612 11.0796 30 13.0302 30 15C30 18.9782 28.4196 22.7936 25.6066 25.6066C22.7936 28.4196 18.9782 30 15 30C13.0302 30 11.0796 29.612 9.25975 28.8582C7.43986 28.1044 5.78628 26.9995 4.3934 25.6066C1.58035 22.7936 0 18.9782 0 15C0 11.0218 1.58035 7.20644 4.3934 4.3934C7.20644 1.58035 11.0218 0 15 0ZM15 9C13.4087 9 11.8826 9.63214 10.7574 10.7574C9.63214 11.8826 9 13.4087 9 15C9 16.5913 9.63214 18.1174 10.7574 19.2426C11.8826 20.3679 13.4087 21 15 21C16.5913 21 18.1174 20.3679 19.2426 19.2426C20.3679 18.1174 21 16.5913 21 15C21 13.4087 20.3679 11.8826 19.2426 10.7574C18.1174 9.63214 16.5913 9 15 9Z" fill="#2B2B2B"/>
</svg>
