<svg width="30" height="30" viewBox="0 0 30 30" fill="none" xmlns="http://www.w3.org/2000/svg">
<path d="M1.92 0L0 1.905L4.155 6.06L5.46 8.085L3.33 11.4L5.925 12.75L7.845 9.75L13.095 15H3C2.20435 15 1.44129 15.3161 0.87868 15.8787C0.31607 16.4413 0 17.2044 0 18V30H3V27H25.095L27 28.905V30H30V28.08L1.92 0ZM7.5 22.5C7.5 22.8978 7.34196 23.2794 7.06066 23.5607C6.77936 23.842 6.39782 24 6 24C5.60218 24 5.22064 23.842 4.93934 23.5607C4.65804 23.2794 4.5 22.8978 4.5 22.5V19.5C4.5 19.1022 4.65804 18.7206 4.93934 18.4393C5.22064 18.158 5.60218 18 6 18C6.39782 18 6.77936 18.158 7.06066 18.4393C7.34196 18.7206 7.5 19.1022 7.5 19.5V22.5ZM13.5 22.5C13.5 22.8978 13.342 23.2794 13.0607 23.5607C12.7794 23.842 12.3978 24 12 24C11.6022 24 11.2206 23.842 10.9393 23.5607C10.658 23.2794 10.5 22.8978 10.5 22.5V19.5C10.5 19.1022 10.658 18.7206 10.9393 18.4393C11.2206 18.158 11.6022 18 12 18C12.3978 18 12.7794 18.158 13.0607 18.4393C13.342 18.7206 13.5 19.1022 13.5 19.5V22.5ZM19.5 22.5C19.5 22.8978 19.342 23.2794 19.0607 23.5607C18.7794 23.842 18.3978 24 18 24C17.6022 24 17.2206 23.842 16.9393 23.5607C16.658 23.2794 16.5 22.8978 16.5 22.5V19.5C16.5 19.185 16.62 18.915 16.77 18.675L19.5 21.405V22.5ZM21.375 11.25L23.505 7.95L21.375 4.65L24.375 0L27 1.335L24.84 4.65L27 7.95V7.965L24 12.6L21.375 11.25ZM30 18V24.27L25.5 19.77V19.5C25.5 19.1022 25.342 18.7206 25.0607 18.4393C24.7794 18.158 24.3978 18 24 18C23.925 18 23.85 18 23.775 18.045L20.73 15H27C27.7956 15 28.5587 15.3161 29.1213 15.8787C29.6839 16.4413 30 17.2044 30 18ZM14.46 7.95L12.33 4.65L15.33 0L17.925 1.335L15.795 4.65L17.925 7.95L17.91 7.965L16.26 10.5L14.16 8.43L14.46 7.95ZM8.25 2.535L6.15 0.42L6.33 0.135L8.925 1.5L8.25 2.535Z" fill="#2B2B2B"/>
</svg>
