<svg width="30" height="30" viewBox="0 0 30 30" fill="none" xmlns="http://www.w3.org/2000/svg">
<path d="M21.1782 14.6056C21.1782 13.6125 21.0906 12.6485 20.9737 11.6845H25.9104C26.1441 12.6193 26.2902 13.5979 26.2902 14.6056C26.2902 15.1461 26.2463 15.6719 26.1733 16.1831C27.1811 16.3291 28.1159 16.6504 28.9776 17.1178C29.1237 16.2999 29.2113 15.4674 29.2113 14.6056C29.2113 6.57254 22.6388 0 14.6056 0C6.52872 0 0 6.57254 0 14.6056C0 22.6388 6.57254 29.2113 14.6056 29.2113C15.4674 29.2113 16.2999 29.1237 17.1178 28.9776C16.4241 27.7053 16.0624 26.2787 16.0662 24.8296C16.0662 24.406 16.11 23.9971 16.1685 23.5881C15.7011 24.5083 15.1899 25.3992 14.6056 26.2317C13.3934 24.4791 12.4148 22.5365 11.816 20.4479H17.2493C18.1265 18.9236 19.4455 17.7013 21.0321 16.9426C21.1198 16.1685 21.1782 15.3944 21.1782 14.6056ZM14.6056 2.96495C15.8179 4.71762 16.7965 6.67478 17.3953 8.76339H11.816C12.4148 6.67478 13.3934 4.71762 14.6056 2.96495ZM3.30088 17.5268C3.06719 16.592 2.92113 15.6134 2.92113 14.6056C2.92113 13.5979 3.06719 12.6193 3.30088 11.6845H8.23759C8.12074 12.6485 8.03311 13.6125 8.03311 14.6056C8.03311 15.5988 8.12074 16.5628 8.23759 17.5268H3.30088ZM4.49854 20.4479H8.76339C9.27459 22.2736 9.93184 24.0263 10.8082 25.6475C8.14742 24.7307 5.90695 22.8844 4.49854 20.4479ZM8.76339 8.76339H4.49854C5.8987 6.31991 8.14215 4.47114 10.8082 3.56378C9.93184 5.185 9.27459 6.93768 8.76339 8.76339ZM18.0234 17.5268H11.1879C11.0419 16.5628 10.9542 15.5988 10.9542 14.6056C10.9542 13.6125 11.0419 12.6339 11.1879 11.6845H18.0234C18.1548 12.6339 18.2571 13.6125 18.2571 14.6056C18.2571 15.5988 18.1548 16.5628 18.0234 17.5268ZM18.3885 3.56378C21.0759 4.48393 23.3106 6.33885 24.7128 8.76339H20.4041C19.9463 6.95464 19.2694 5.20853 18.3885 3.56378ZM26.889 24.8296L30 27.926L27.926 30L24.8296 26.889L21.7332 30L19.6738 27.926L22.7702 24.8296L19.6738 21.7332L21.7332 19.6738L24.8296 22.7702L27.926 19.6738L30 21.7332L26.889 24.8296Z" fill="#2B2B2B"/>
</svg>
