<svg width="30" height="30" viewBox="0 0 30 30" fill="none" xmlns="http://www.w3.org/2000/svg">
<path d="M30 28.1857L1.82857 0L0 1.81429L9.34286 11.1571C8.04286 13.2857 6.98571 15.6 6.98571 17.8571C6.98571 22.5857 10.8286 26.4286 15.5571 26.4286C16.7407 26.4339 17.9122 26.1898 18.9952 25.7123C20.0782 25.2348 21.0485 24.5345 21.8429 23.6571L28.1857 30L30 28.1857ZM15.5571 23.5714C12.3857 23.5714 9.84286 21.0286 9.84286 17.8571C9.84286 16.8143 10.5571 15.0571 11.4714 13.2857L19.8429 21.6429C18.7857 22.8286 17.2714 23.5714 15.5571 23.5714ZM14.3286 8.87143L12.2857 6.81429C13.5143 5.21429 14.4857 4.11429 14.4857 4.11429L15.5571 2.91429L16.6286 4.11429C16.6286 4.11429 18.4571 6.18571 20.3 8.87143C22.1429 11.5571 24.1286 14.7714 24.1286 17.8571C24.1286 18.1143 24.1286 18.3714 24.0857 18.6286L20.5 15.0429C19.8429 13.5714 18.9429 11.9143 17.9571 10.4857C16.7571 8.74286 16.1857 8.12857 15.5571 7.38571C15.1714 7.82857 14.8429 8.24286 14.3286 8.87143Z" fill="#2B2B2B"/>
</svg>
