<svg width="30" height="30" viewBox="0 0 30 30" fill="none" xmlns="http://www.w3.org/2000/svg">
<path d="M16.9523 20.7863H12.3211C12.3332 19.5766 12.418 18.5349 12.5754 17.6613C12.7449 16.7742 13.0294 15.9745 13.429 15.2621C13.8406 14.5497 14.3855 13.8441 15.0635 13.1452C15.6326 12.5806 16.129 12.043 16.5528 11.5323C16.9765 11.0215 17.3095 10.4973 17.5516 9.95968C17.7938 9.4086 17.9149 8.79704 17.9149 8.125C17.9149 7.34543 17.8059 6.70027 17.588 6.18952C17.3821 5.66532 17.0673 5.26882 16.6436 5C16.2319 4.73118 15.7113 4.59677 15.0817 4.59677C14.561 4.59677 14.0767 4.72446 13.6287 4.97984C13.1807 5.22177 12.8115 5.59812 12.5209 6.10887C12.2424 6.61962 12.0971 7.29167 12.085 8.125H6.81812C6.85444 6.2836 7.23583 4.76478 7.9623 3.56855C8.70087 2.35887 9.68765 1.46505 10.9226 0.887097C12.1576 0.295699 13.544 0 15.0817 0C16.7767 0 18.2297 0.30914 19.4405 0.927419C20.6512 1.53226 21.5775 2.42608 22.2192 3.60887C22.8609 4.77823 23.1818 6.20296 23.1818 7.88306C23.1818 9.05242 22.9759 10.0941 22.5643 11.0081C22.1526 11.9086 21.6138 12.7487 20.9479 13.5282C20.2819 14.3078 19.5494 15.1142 18.7503 15.9476C18.0602 16.6331 17.588 17.3521 17.3337 18.1048C17.0915 18.8575 16.9644 19.7513 16.9523 20.7863ZM11.7762 27.0161C11.7762 26.1559 12.0426 25.4435 12.5754 24.879C13.1081 24.3011 13.8225 24.0121 14.7184 24.0121C15.6023 24.0121 16.3106 24.3011 16.8433 24.879C17.3882 25.4435 17.6606 26.1559 17.6606 27.0161C17.6606 27.8495 17.3882 28.5551 16.8433 29.1331C16.3106 29.711 15.6023 30 14.7184 30C13.8225 30 13.1081 29.711 12.5754 29.1331C12.0426 28.5551 11.7762 27.8495 11.7762 27.0161Z" fill="#2B2B2B"/>
</svg>
