<svg width="30" height="30" viewBox="0 0 30 30" fill="none" xmlns="http://www.w3.org/2000/svg">
<rect x="0.5" y="0.5" width="29" height="29" stroke="black"/>
<path d="M16.5775 23.681L14.9844 22.7189L13.3965 23.681L13.8206 21.8706L12.4137 20.6604L14.2655 20.5001L14.9844 18.7931L15.7085 20.4948L17.5603 20.6551L16.1533 21.8656L16.5775 23.681Z" fill="#2B2B2B"/>
<path d="M15.401 6.89655H17.9922L14.5439 10.3448H11.9527L15.401 6.89655Z" fill="#2B2B2B"/>
<path d="M19.8275 7.98727L17.4699 10.3448H19.8275V7.98727Z" fill="#2B2B2B"/>
<path d="M12.475 6.89655H10.1723V9.19922L12.475 6.89655Z" fill="#2B2B2B"/>
<path fill-rule="evenodd" clip-rule="evenodd" d="M5.34473 1.03448C5.34473 0.463194 5.80792 0 6.37921 0H23.6206C24.1919 0 24.6551 0.463194 24.6551 1.03448V28.9655C24.6551 29.5368 24.1919 30 23.6206 30H6.37921C5.80792 30 5.34473 29.5368 5.34473 28.9655V1.03448ZM20.1723 17.2414L19.1378 16.2069C18.543 16.5379 17.793 16.7241 17.0689 16.7241C16.3447 16.7241 15.5895 16.5327 14.9999 16.2069C14.4103 16.5327 13.6551 16.7241 12.9309 16.7241C12.2068 16.7241 11.4568 16.5379 10.862 16.2069L9.82749 17.2414C9.82749 17.2414 10.862 18.2759 10.862 19.3103C10.862 19.8276 10.6033 20.6034 10.3447 21.3793C10.0861 22.1552 9.82749 22.931 9.82749 23.4483C9.82749 25.5172 14.9999 26.5517 14.9999 26.5517C14.9999 26.5517 20.1723 25.5172 20.1723 23.4483C20.1723 22.931 19.9137 22.1552 19.6551 21.3793C19.3965 20.6034 19.1378 19.8276 19.1378 19.3103C19.1378 18.2759 20.1723 17.2414 20.1723 17.2414ZM7.75852 12.4138V4.82759H22.2413V12.4138H7.75852Z" fill="#2B2B2B"/>
</svg>
