<svg width="30" height="30" viewBox="0 0 30 30" fill="none" xmlns="http://www.w3.org/2000/svg">
<path d="M27.8571 16.5H2.14286C1.57454 16.5 1.02949 16.6104 0.627628 16.8068C0.225765 17.0033 0 17.2698 0 17.5476V21.4048C0 21.6826 0.225765 21.9491 0.627628 22.1455C1.02949 22.342 1.57454 22.4524 2.14286 22.4524H3.64286V28.8333C3.64286 28.9723 3.75574 29.1055 3.95667 29.2037C4.1576 29.302 4.43013 29.3571 4.71429 29.3571C4.99845 29.3571 5.27097 29.302 5.4719 29.2037C5.67283 29.1055 5.78571 28.9723 5.78571 28.8333V22.4524H24.2143V28.8333C24.2143 28.9723 24.3272 29.1055 24.5281 29.2037C24.729 29.302 25.0016 29.3571 25.2857 29.3571C25.5699 29.3571 25.8424 29.302 26.0433 29.2037C26.2443 29.1055 26.3571 28.9723 26.3571 28.8333V22.4524H27.8571C28.4255 22.4524 28.9705 22.342 29.3724 22.1455C29.7742 21.9491 30 21.6826 30 21.4048V17.5476C30 17.2698 29.7742 17.0033 29.3724 16.8068C28.9705 16.6104 28.4255 16.5 27.8571 16.5ZM2.14286 21.4048V18.3333L10.1786 21.4048H2.14286ZM27.8571 21.4048H20.2647L10.6219 17.5476H19.8214L27.8571 20.619V21.4048Z" fill="#2B2B2B"/>
<path d="M21.4285 1.84307L20.2285 0.643066C19.5385 1.02707 18.6685 1.24307 17.8285 1.24307C16.9885 1.24307 16.1125 1.02107 15.4285 0.643066C14.7445 1.02107 13.8685 1.24307 13.0285 1.24307C12.1885 1.24307 11.3185 1.02707 10.6285 0.643066L9.42847 1.84307C9.42847 1.84307 10.6285 3.04307 10.6285 4.24307C10.6285 5.44307 9.42847 7.84307 9.42847 9.04307C9.42847 11.4431 15.4285 12.6431 15.4285 12.6431C15.4285 12.6431 21.4285 11.4431 21.4285 9.04307C21.4285 7.84307 20.2285 5.44307 20.2285 4.24307C20.2285 3.04307 21.4285 1.84307 21.4285 1.84307ZM17.2585 9.31307L15.4105 8.19707L13.5685 9.31307L14.0605 7.21307L12.4285 5.80907L14.5765 5.62307L15.4105 3.64307L16.2505 5.61707L18.3985 5.80307L16.7665 7.20707L17.2585 9.31307Z" fill="#2B2B2B"/>
</svg>
