<svg width="30" height="30" viewBox="0 0 30 30" fill="none" xmlns="http://www.w3.org/2000/svg">
<rect x="3.87085" y="24.4355" width="4.83871" height="2.41935" rx="1.20968" fill="#2B2B2B"/>
<rect x="25.1614" y="24.4355" width="4.83871" height="2.41935" rx="1.20968" fill="#2B2B2B"/>
<path d="M11.6129 7.98389H9.67742L11.129 10.8871H13.0645L11.6129 7.98389Z" fill="#2B2B2B"/>
<path d="M15 10.8871H16.9355L15.4839 7.98389H13.5484L15 10.8871Z" fill="#2B2B2B"/>
<path d="M20.8065 10.8871H18.871L17.4194 7.98389H19.3548L20.8065 10.8871Z" fill="#2B2B2B"/>
<path d="M22.7419 10.8871H24.6774L23.2258 7.98389H21.2903L22.7419 10.8871Z" fill="#2B2B2B"/>
<path d="M28.5484 10.8871H26.6129L25.1613 7.98389H27.0968L28.5484 10.8871Z" fill="#2B2B2B"/>
<path d="M5.80645 7.98389H7.74194L9.19355 10.8871H7.25806L5.80645 7.98389Z" fill="#2B2B2B"/>
<path d="M0 7.98389L1.93548 9.4355L0 10.8871H5.32258L3.87097 7.98389H0Z" fill="#2B2B2B"/>
<path d="M27.5808 3.14502C26.7791 3.14502 26.1292 3.79498 26.1292 4.59663V7.98373H29.0324V4.59663C29.0324 3.79498 28.3824 3.14502 27.5808 3.14502Z" fill="#2B2B2B"/>
<path d="M29.0324 10.887H26.1292V23.4676H29.0324V10.887Z" fill="#2B2B2B"/>
<path d="M6.29024 3.14502C5.48859 3.14502 4.83862 3.79498 4.83862 4.59663V7.98373H7.74185V4.59663C7.74185 3.79498 7.09188 3.14502 6.29024 3.14502Z" fill="#2B2B2B"/>
<path d="M7.74185 10.887H4.83862V23.4676H7.74185V10.887Z" fill="#2B2B2B"/>
<path d="M23 14.7L21.8 13.5C21.11 13.884 20.24 14.1 19.4 14.1C18.56 14.1 17.684 13.878 17 13.5C16.316 13.878 15.44 14.1 14.6 14.1C13.76 14.1 12.89 13.884 12.2 13.5L11 14.7C11 14.7 12.2 15.9 12.2 17.1C12.2 18.3 11 20.7 11 21.9C11 24.3 17 25.5 17 25.5C17 25.5 23 24.3 23 21.9C23 20.7 21.8 18.3 21.8 17.1C21.8 15.9 23 14.7 23 14.7ZM18.83 22.17L16.982 21.054L15.14 22.17L15.632 20.07L14 18.666L16.148 18.48L16.982 16.5L17.822 18.474L19.97 18.66L18.338 20.064L18.83 22.17Z" fill="#2B2B2B"/>
</svg>
