<svg width="30" height="30" viewBox="0 0 30 30" fill="none" xmlns="http://www.w3.org/2000/svg">
<path d="M15 30C14.8448 30 14.6822 29.9858 14.5123 29.9575C14.3424 29.9292 14.1838 29.8867 14.0365 29.8301C10.6911 28.5556 8.03274 26.394 6.06151 23.3454C4.09029 20.2968 3.10467 16.9967 3.10467 13.4451V6.16687C3.10467 5.5891 3.27178 5.06627 3.60598 4.59839C3.94018 4.13051 4.36784 3.79064 4.88897 3.57879L14.0399 0.180129C14.3707 0.060043 14.6907 0 15 0C15.3093 0 15.6293 0.060043 15.9601 0.180129L25.111 3.57879C25.6321 3.79064 26.0598 4.13051 26.394 4.59839C26.7282 5.06741 26.8953 5.59023 26.8953 6.16687V13.4451C26.8953 16.9967 25.9097 20.2968 23.9385 23.3454C21.9673 26.394 19.3089 28.5556 15.9635 29.8301C15.8162 29.8867 15.6576 29.9292 15.4877 29.9575C15.3178 29.9858 15.1552 30 15 30Z" fill="#2B2B2B"/>
<path d="M14.847 27.9468C14.7151 27.9468 14.5769 27.9347 14.4325 27.9107C14.2881 27.8866 14.1532 27.8505 14.0281 27.8023C11.1844 26.719 8.92487 24.8817 7.24933 22.2904C5.57379 19.6991 4.73602 16.894 4.73602 13.8751V7.68862C4.73602 7.19751 4.87806 6.75311 5.16213 6.35541C5.4462 5.95771 5.80972 5.66882 6.25268 5.48875L14.0309 2.59989C14.3121 2.49781 14.5842 2.44678 14.847 2.44678C15.1099 2.44678 15.382 2.49781 15.6631 2.59989L23.4414 5.48875C23.8844 5.66882 24.2479 5.95771 24.532 6.35541C24.816 6.75407 24.9581 7.19848 24.9581 7.68862V13.8751C24.9581 16.894 24.1203 19.6991 22.4448 22.2904C20.7692 24.8817 18.5096 26.719 15.666 27.8023C15.5409 27.8505 15.406 27.8866 15.2616 27.9107C15.1172 27.9347 14.979 27.9468 14.847 27.9468Z" fill="white"/>
<path d="M14.8471 26.0344C14.7349 26.0344 14.6175 26.0241 14.4947 26.0037C14.3719 25.9832 14.2573 25.9525 14.1509 25.9116C11.7338 24.9908 9.81321 23.4291 8.389 21.2264C6.96479 19.0238 6.25269 16.6395 6.25269 14.0735V8.81494C6.25269 8.3975 6.37342 8.01976 6.61488 7.68171C6.85634 7.34367 7.16533 7.09811 7.54184 6.94505L14.1534 4.48952C14.3924 4.40276 14.6236 4.35938 14.8471 4.35938C15.0705 4.35938 15.3017 4.40276 15.5407 4.48952L22.1523 6.94505C22.5288 7.09811 22.8378 7.34367 23.0792 7.68171C23.3207 8.02058 23.4414 8.39832 23.4414 8.81494V14.0735C23.4414 16.6395 22.7293 19.0238 21.3051 21.2264C19.8809 23.4291 17.9603 24.9908 15.5432 25.9116C15.4368 25.9525 15.3222 25.9832 15.1994 26.0037C15.0766 26.0241 14.9592 26.0344 14.8471 26.0344Z" fill="#2B2B2B"/>
<path d="M13.5864 13.5041C13.9062 13.1171 14.3903 12.8697 14.932 12.8697C15.4738 12.8697 15.9579 13.1171 16.2776 13.5041C16.4882 13.7593 16.6218 14.0691 16.6629 14.3974C16.704 14.7257 16.6509 15.0589 16.5098 15.3582C16.3687 15.6574 16.1454 15.9104 15.866 16.0876C15.5866 16.2647 15.2626 16.3588 14.9317 16.3588C14.6009 16.3588 14.2769 16.2647 13.9974 16.0876C13.718 15.9104 13.4948 15.6574 13.3537 15.3582C13.2126 15.0589 13.1595 14.7257 13.2006 14.3974C13.2417 14.0691 13.3753 13.7593 13.5858 13.5041M17.3105 14.6143C17.3105 14.2134 17.2115 13.8352 17.0364 13.5041H19.6902C19.9426 13.5041 20.1846 13.6043 20.3631 13.7828C20.5415 13.9613 20.6418 14.2033 20.6418 14.4557V14.7729C20.6418 15.7797 19.8767 16.8107 18.5387 17.1736C18.4012 16.9266 18.2002 16.7208 17.9565 16.5776C17.7128 16.4344 17.4352 16.3589 17.1525 16.359H16.5498C16.7903 16.1365 16.9821 15.8666 17.1131 15.5663C17.2441 15.2661 17.3115 14.9419 17.3111 14.6143M17.1525 16.9934C17.2776 16.993 17.4015 17.0174 17.5171 17.0651C17.6327 17.1128 17.7377 17.1829 17.8262 17.2714C17.9146 17.3598 17.9847 17.4648 18.0324 17.5804C18.0801 17.696 18.1045 17.8199 18.1041 17.945V18.2622C18.1041 19.5126 16.9241 20.7999 14.932 20.7999C12.94 20.7999 11.76 19.5126 11.76 18.2622V17.945C11.7596 17.8199 11.784 17.696 11.8317 17.5804C11.8794 17.4648 11.9495 17.3598 12.0379 17.2714C12.1264 17.1829 12.2314 17.1128 12.347 17.0651C12.4626 17.0174 12.5865 16.993 12.7116 16.9934H17.1525ZM9.22229 14.7729C9.22229 15.7797 9.9874 16.8107 11.3254 17.1736C11.4629 16.9266 11.6639 16.7208 11.9076 16.5776C12.1513 16.4344 12.4289 16.3589 12.7116 16.359H13.3143C13.0738 16.1365 12.882 15.8666 12.751 15.5663C12.62 15.2661 12.5526 14.9419 12.553 14.6143C12.553 14.2134 12.6519 13.8352 12.8277 13.5041H10.1739C9.92153 13.5041 9.67948 13.6043 9.50101 13.7828C9.32255 13.9613 9.22229 14.2033 9.22229 14.4557V14.7729ZM14.139 11.125C14.139 10.6623 13.9552 10.2186 13.628 9.89137C13.3008 9.56418 12.8571 9.38037 12.3944 9.38037C11.9317 9.38037 11.4879 9.56418 11.1607 9.89137C10.8335 10.2186 10.6497 10.6623 10.6497 11.125C10.6497 11.5877 10.8335 12.0315 11.1607 12.3587C11.4879 12.6859 11.9317 12.8697 12.3944 12.8697C12.8571 12.8697 13.3008 12.6859 13.628 12.3587C13.9552 12.0315 14.139 11.5877 14.139 11.125ZM19.2144 11.125C19.2144 10.6623 19.0305 10.2186 18.7034 9.89137C18.3762 9.56418 17.9324 9.38037 17.4697 9.38037C17.007 9.38037 16.5632 9.56418 16.2361 9.89137C15.9089 10.2186 15.7251 10.6623 15.7251 11.125C15.7251 11.5877 15.9089 12.0315 16.2361 12.3587C16.5632 12.6859 17.007 12.8697 17.4697 12.8697C17.9324 12.8697 18.3762 12.6859 18.7034 12.3587C19.0305 12.0315 19.2144 11.5877 19.2144 11.125Z" fill="white"/>
</svg>
