<svg width="30" height="30" viewBox="0 0 30 30" fill="none" xmlns="http://www.w3.org/2000/svg">
<path d="M18 14.0998C18 15.7498 16.65 17.0998 15 17.0998C13.35 17.0998 12 15.7498 12 14.0998C12 12.4498 13.35 11.0998 15 11.0998C16.65 11.0998 18 12.4498 18 14.0998ZM21 14.0998H30C30 8.5498 27 3.7498 22.5 1.0498L18 8.8498C19.8 9.8998 21 11.8498 21 14.0998ZM15 20.0998C13.95 20.0998 12.9 19.7998 12 19.1998C10.2 22.3498 8.1 25.7998 7.5 26.9998C9.75 28.3498 12.3 28.9498 15 28.9498C17.7 28.9498 20.25 28.1998 22.5 26.9998L18 19.1998C17.1 19.7998 16.05 20.0998 15 20.0998ZM12 8.9998C10.2 5.8498 8.1 2.2498 7.5 1.0498C3 3.5998 0 8.5498 0 14.0998H9C9 11.8498 10.2 9.89981 12 8.9998Z" fill="#2B2B2B"/>
</svg>
