<svg width="30" height="30" viewBox="0 0 30 30" fill="none" xmlns="http://www.w3.org/2000/svg">
<path fill-rule="evenodd" clip-rule="evenodd" d="M21.1725 4.07129C21.8226 4.07129 22.3427 4.25879 22.4727 4.57129L25.883 13.0713H27.8571C28.4255 13.0713 28.9705 13.1817 29.3724 13.3781C29.7742 13.5746 30 13.8411 30 14.1189V17.9761C30 18.2539 29.7742 18.5204 29.3724 18.7168C28.9705 18.9133 28.4255 19.0237 27.8571 19.0237H26.3571V25.4046C26.3571 25.5435 26.2443 25.6768 26.0433 25.775C25.8424 25.8732 25.5699 25.9284 25.2857 25.9284C25.0016 25.9284 24.729 25.8732 24.5281 25.775C24.3272 25.6768 24.2143 25.5435 24.2143 25.4046V19.0237H5.78571V25.4046C5.78571 25.5435 5.67283 25.6768 5.4719 25.775C5.27097 25.8732 4.99845 25.9284 4.71429 25.9284C4.43013 25.9284 4.1576 25.8732 3.95667 25.775C3.75574 25.6768 3.64286 25.5435 3.64286 25.4046V19.0237H2.14286C1.57454 19.0237 1.02949 18.9133 0.627628 18.7168C0.225765 18.5204 0 18.2539 0 17.9761V14.1189C0 13.8411 0.225765 13.5746 0.627628 13.3781C1.02949 13.1817 1.57454 13.0713 2.14286 13.0713H4.11695L7.52731 4.57129C7.65733 4.32129 8.17743 4.07129 8.82755 4.07129H14.2886L14.0285 5.94629H16.1015L15.8414 4.07129H21.1725ZM13.1132 13.0713H17.0169L16.7516 10.9463H13.3784L13.1132 13.0713ZM13.7685 7.19629L13.5084 9.69629H16.3615L16.1015 7.19629H13.7685ZM2.14286 14.9046V17.9761H10.1786L2.14286 14.9046ZM20.2647 17.9761H27.8571V17.1903L19.8214 14.1189H10.6219L20.2647 17.9761Z" fill="#2B2B2B"/>
</svg>
