<svg width="30" height="30" viewBox="0 0 30 30" fill="none" xmlns="http://www.w3.org/2000/svg">
<path d="M7.1114 6.09035C4.91785 8.2839 3.18893 10.2551 3.07383 10.692C2.75624 11.3386 3.48843 12.7963 4.78648 14.0968L5.43189 14.7422L5.30052 14.8736C5.25742 14.8574 5.2121 14.8478 5.16613 14.8453C5.15751 14.7228 5.10485 14.6077 5.01789 14.521L4.69006 14.1932C4.62104 14.1089 4.52177 14.0548 4.41345 14.0427C4.30513 14.0305 4.19635 14.0612 4.11034 14.1281L3.59329 14.6452C3.52603 14.7318 3.49537 14.8413 3.50788 14.9502C3.52038 15.0591 3.57505 15.1588 3.66018 15.2279L3.65897 15.2267L3.9868 15.5545C4.07719 15.6449 4.1935 15.695 4.31161 15.7034H4.31041C4.31903 15.8258 4.37169 15.941 4.45865 16.0276L6.0773 17.6462C6.08513 17.6565 6.09477 17.6661 6.10502 17.6764C6.25567 17.827 6.49311 17.8391 6.65702 17.7113L7.17467 17.1937C7.22066 17.1427 7.25101 17.0796 7.26213 17.0119C7.27324 16.9441 7.26464 16.8746 7.23735 16.8116L7.23614 16.8092L7.36751 16.6778L10.2734 19.5837C10.3885 19.6988 10.6187 19.6819 10.8754 19.5397L11.2526 19.9169C11.0043 20.2387 10.9356 20.5641 11.0827 20.7112L14.3127 23.9412C14.6928 24.3618 15.2033 24.6422 15.762 24.7373L15.753 24.7355L16.308 25.2905C16.4545 25.437 16.6919 25.437 16.8383 25.2905L17.9218 24.207C17.9922 24.1367 18.0317 24.0413 18.0317 23.9418C18.0317 23.8424 17.9922 23.747 17.9218 23.6767L17.5416 23.2964L24.3193 16.5187L24.6995 16.899C24.846 17.0454 25.0834 17.0454 25.2299 16.899L26.3134 15.8155C26.3482 15.7807 26.3758 15.7393 26.3947 15.6938C26.4135 15.6483 26.4232 15.5996 26.4232 15.5503C26.4232 15.5011 26.4135 15.4523 26.3947 15.4068C26.3758 15.3613 26.3482 15.32 26.3134 15.2852L25.759 14.7308C25.6627 14.1735 25.3816 13.6649 24.9611 13.2869L24.9653 13.2911L21.7352 10.061C21.5882 9.91399 21.2604 9.9851 20.941 10.231L20.5637 9.85373C20.706 9.59701 20.7222 9.36741 20.6077 9.25171L17.7031 6.34707L17.8345 6.2157C17.9622 6.27114 18.1123 6.25005 18.2183 6.15483L18.7336 5.63959C18.8008 5.553 18.8315 5.44351 18.819 5.33458C18.8065 5.22565 18.7518 5.12596 18.6667 5.05685L18.6679 5.05806L17.0492 3.43942C16.9624 3.35229 16.8471 3.29944 16.7244 3.29057L16.7256 3.29057C16.717 3.16814 16.6644 3.05297 16.5774 2.96636L16.2508 2.63973C16.1818 2.55537 16.0825 2.50134 15.9742 2.48918C15.8658 2.47702 15.7571 2.50769 15.6711 2.57465L15.1534 3.0923C15.0861 3.1789 15.0555 3.28839 15.068 3.39732C15.0805 3.50624 15.1352 3.60594 15.2203 3.67504L15.2191 3.67384L15.5469 4.00166C15.6373 4.09206 15.7536 4.14207 15.8717 4.15051L15.8705 4.15051C15.8731 4.19534 15.882 4.23958 15.897 4.28188L15.8982 4.28429L15.7669 4.41566L15.1184 3.76724C13.8126 2.46136 12.3464 1.72797 11.7046 2.0576C11.249 2.19259 9.28928 3.91488 7.1126 6.09156L7.1114 6.09035ZM13.4112 3.53523C13.5673 3.37915 13.8083 3.35987 13.9861 3.47738L13.9885 3.47859C14.3573 3.72446 14.746 4.04324 15.1082 4.40542L15.1311 4.42832L15.1299 4.42711L17.3759 6.67309C17.5542 6.85146 17.5542 7.14072 17.3759 7.3191L8.33834 16.3566C8.25267 16.4423 8.13648 16.4904 8.01533 16.4904C7.89418 16.4904 7.77799 16.4423 7.69233 16.3566L5.42526 14.0896C5.06308 13.7274 4.7443 13.3387 4.4689 12.9295L4.49782 12.9693C4.43895 12.8814 4.41242 12.7758 4.42275 12.6705C4.43308 12.5652 4.47964 12.4668 4.55447 12.392L13.4112 3.53523ZM12.0505 19.101L12.7423 18.4092C12.8285 18.323 12.9659 18.3206 13.0557 18.4007L15.2697 20.3846L15.2781 20.393C15.3673 20.4822 15.3673 20.6268 15.2781 20.716L14.4718 21.5223C14.429 21.5651 14.3709 21.5892 14.3103 21.5892C14.2498 21.5892 14.1917 21.5651 14.1488 21.5223L12.0505 19.424C11.9613 19.3348 11.9613 19.1902 12.0505 19.101ZM19.4296 11.7219L20.1214 11.0301C20.2106 10.9409 20.3552 10.9409 20.4444 11.0301L22.541 13.1266C22.6301 13.2158 22.6301 13.3604 22.541 13.4496L21.734 14.2565C21.6912 14.2993 21.6331 14.3234 21.5725 14.3234C21.512 14.3234 21.4539 14.2993 21.411 14.2565L21.402 14.2475L19.4194 12.0346C19.341 11.9442 19.3446 11.808 19.4296 11.7231V11.7219ZM13.8083 18.1145L19.1355 12.7873C19.1801 12.7427 19.2524 12.7427 19.297 12.7873L19.3935 12.8837C19.438 12.9283 19.438 13.0006 19.3935 13.0452L14.0663 18.3724C14.0449 18.3938 14.0158 18.4059 13.9855 18.4059C13.9552 18.4059 13.9262 18.3938 13.9048 18.3724L13.8083 18.276C13.7638 18.2314 13.7638 18.1591 13.8083 18.1145ZM14.4212 18.6635L19.6839 13.4008C19.7285 13.3562 19.8008 13.3562 19.8454 13.4008L19.9418 13.4972C19.9864 13.5418 19.9864 13.6141 19.9418 13.6587L14.6791 18.9214C14.6577 18.9428 14.6287 18.9548 14.5984 18.9548C14.5681 18.9548 14.539 18.9428 14.5176 18.9214L14.4212 18.825C14.3766 18.7804 14.3766 18.7081 14.4212 18.6635ZM15.0347 19.2119L20.2329 14.0136C20.2775 13.969 20.3498 13.969 20.3944 14.0136L20.4908 14.1101C20.5354 14.1546 20.5354 14.227 20.4908 14.2716L15.2926 19.4698C15.2719 19.4905 15.2439 19.5025 15.2146 19.503C15.1852 19.5036 15.1568 19.4927 15.1353 19.4728L15.0389 19.3764C14.9943 19.3318 14.9943 19.2595 15.0389 19.2149L15.0347 19.2119ZM15.6482 19.7602L20.7813 14.6271C20.8259 14.5825 20.8982 14.5825 20.9428 14.6271L21.0392 14.7235C21.0838 14.7681 21.0838 14.8404 21.0392 14.885L15.9061 20.0182C15.8847 20.0396 15.8556 20.0516 15.8253 20.0516C15.795 20.0516 15.766 20.0396 15.7446 20.0182L15.6482 19.9217C15.6036 19.8772 15.6036 19.8048 15.6482 19.7602Z" fill="#2B2B2B"/>
<path d="M0 25.9756H30V28.021H0V25.9756Z" fill="#2B2B2B"/>
</svg>
