<svg width="30" height="30" viewBox="0 0 30 30" fill="none" xmlns="http://www.w3.org/2000/svg">
<path fill-rule="evenodd" clip-rule="evenodd" d="M21.1725 1C21.8226 1 22.3427 1.1875 22.4727 1.5L25.883 10H27.8571C28.4255 10 28.9705 10.1104 29.3724 10.3068C29.7742 10.5033 30 10.7698 30 11.0476V14.9048C30 15.1826 29.7742 15.4491 29.3724 15.6455C28.9705 15.842 28.4255 15.9524 27.8571 15.9524H26.3571V22.3333C26.3571 22.4723 26.2443 22.6055 26.0433 22.7037C25.8424 22.802 25.5699 22.8571 25.2857 22.8571C25.0016 22.8571 24.729 22.802 24.5281 22.7037C24.3272 22.6055 24.2143 22.4723 24.2143 22.3333V15.9524H5.78571V22.3333C5.78571 22.4723 5.67283 22.6055 5.4719 22.7037C5.27097 22.802 4.99845 22.8571 4.71429 22.8571C4.43013 22.8571 4.1576 22.802 3.95667 22.7037C3.75574 22.6055 3.64286 22.4723 3.64286 22.3333V15.9524H2.14286C1.57454 15.9524 1.02949 15.842 0.627628 15.6455C0.225765 15.4491 0 15.1826 0 14.9048V11.0476C0 10.7698 0.225765 10.5033 0.627628 10.3068C1.02949 10.1104 1.57454 10 2.14286 10H4.11695L7.52731 1.5C7.65733 1.25 8.17743 1 8.82755 1H14.2886L14.0285 2.875H16.1015L15.8414 1H21.1725ZM13.1132 10H17.0169L16.7516 7.875H13.3784L13.1132 10ZM13.7685 4.125L13.5084 6.625H16.3615L16.1015 4.125H13.7685ZM2.14286 11.8333V14.9048H10.1786L2.14286 11.8333ZM20.2647 14.9048H27.8571V14.119L19.8214 11.0476H10.6219L20.2647 14.9048Z" fill="#2B2B2B"/>
<path d="M20.7453 23.9474L17.0884 25.8421L17.72 27.1053L15.1937 26.6316V29H13.9305V26.6316L11.4042 27.1053L12.0358 25.8421L8.37895 23.9474L9.01053 22.8547L8 20.7895L10.2737 20.6442L10.9053 19.5263L13.0653 21.9895L12.0358 18.8947H13.2989L14.5621 17L15.8253 18.8947H17.0884L16.0589 21.9895L18.2189 19.5263L18.8505 20.6189L21.1242 20.7642L20.1137 22.8042L20.7453 23.9474Z" fill="#2B2B2B"/>
</svg>
