<svg width="30" height="30" viewBox="0 0 30 30" fill="none" xmlns="http://www.w3.org/2000/svg">
<path d="M0 0.633789V1.90139H28.7324V28.0986H0V29.3662H30V0.633789H0Z" fill="#2B2B2B"/>
<path d="M23.662 12.0422C23.662 13.209 22.7161 14.1549 21.5493 14.1549C20.3825 14.1549 19.4366 13.209 19.4366 12.0422C19.4366 10.8755 20.3825 9.92956 21.5493 9.92956C22.7161 9.92956 23.662 10.8755 23.662 12.0422Z" fill="#2B2B2B"/>
<path fill-rule="evenodd" clip-rule="evenodd" d="M23.7287 26.002L19.7845 20.7678L16.8661 26.4953C16.6411 26.937 16.1292 27.2444 15.6337 27.2446H13.9437C13.2436 27.2446 12.6761 26.6771 12.6761 25.977C12.6761 25.277 13.2436 24.7094 13.9437 24.7094H14.9307L17.6755 19.3225L16.6901 19.6479C16.2483 19.873 15.7077 19.6974 15.4826 19.2555C15.2574 18.8135 15.4331 18.273 15.875 18.0479L22.6056 14.5775C22.8456 14.4574 23.0281 14.3713 23.2146 14.3064C23.3565 14.257 23.5008 14.2197 23.6747 14.1892C23.6977 14.185 23.7207 14.1815 23.7437 14.1784C23.7597 14.1762 23.7755 14.1743 23.7914 14.1727L23.8254 14.1694C23.8689 14.1656 23.9122 14.1636 23.9552 14.1634C24.1187 14.1407 24.2837 14.1642 24.4323 14.228C25.0343 14.4002 25.5165 14.902 25.6326 15.5601L27.3202 25.1307C27.4822 26.0499 26.8685 26.9265 25.9492 27.0887C25.1602 27.2277 24.1986 26.6259 23.7287 26.002ZM22.4359 16.8971L20.7062 17.7782L23.1672 21.0442L22.4359 16.8971Z" fill="#2B2B2B"/>
</svg>
