<svg width="30" height="30" viewBox="0 0 30 30" fill="none" xmlns="http://www.w3.org/2000/svg">
<path d="M21.1863 25.651C21.1863 27.4524 19.7259 28.9128 17.9244 28.9128C16.123 28.9128 14.6626 27.4524 14.6626 25.651C14.6626 23.8495 16.123 22.3892 17.9244 22.3892C19.7259 22.3892 21.1863 23.8495 21.1863 25.651ZM16.2935 25.651C16.2935 26.5517 17.0237 27.2819 17.9244 27.2819C18.8252 27.2819 19.5553 26.5517 19.5553 25.651C19.5553 24.7503 18.8252 24.0201 17.9244 24.0201C17.0237 24.0201 16.2935 24.7503 16.2935 25.651Z" fill="#2B2B2B"/>
<path fill-rule="evenodd" clip-rule="evenodd" d="M30 8.66389H25.0891C24.6643 8.66389 24.2619 8.85466 23.9931 9.18356L19.2849 14.9433L14.9652 7.7543C14.6632 7.25169 14.011 7.08907 13.5084 7.39106C13.0058 7.69306 12.8432 8.34531 13.1452 8.84792L17.2874 15.7418H9.38364C8.20216 15.7418 7.2479 16.7062 7.26037 17.8876L7.32016 23.55C7.33245 24.7139 8.27946 25.6509 9.44342 25.6509H12.9704C12.9706 22.9147 15.1887 20.6967 17.9249 20.6967C20.6611 20.6967 22.8793 22.9147 22.8795 25.6509H30V8.66389Z" fill="#2B2B2B"/>
<path d="M6.91997 13.3228C6.85661 13.4044 6.7861 13.4774 6.70844 13.5418C6.63077 13.6061 6.5366 13.6598 6.42592 13.7028C6.31524 13.7458 6.19834 13.7712 6.07522 13.779C5.95209 13.7867 5.83749 13.7772 5.73141 13.7505C4.99771 13.5343 4.408 13.2507 3.9623 12.8998C3.5166 12.5488 3.19618 12.1207 3.00106 11.6154C2.8587 11.2491 2.78437 10.8336 2.77805 10.3688C2.77173 9.90407 2.82937 9.27773 2.95097 8.48979C3.04829 7.80245 3.10026 7.28383 3.10688 6.93393C3.1135 6.58404 3.06672 6.28019 2.96653 6.0224C2.83572 5.68581 2.61035 5.41172 2.29043 5.20013C1.97051 4.98854 1.53251 4.81965 0.976406 4.69347C0.870724 4.66617 0.778539 4.62223 0.699852 4.56165C0.621166 4.50107 0.566157 4.43129 0.534827 4.35231C0.503496 4.27332 0.496289 4.19362 0.513207 4.11321C0.530124 4.03279 0.561104 3.94942 0.606146 3.86309C0.665658 3.77159 0.741129 3.69098 0.832558 3.62126C0.923987 3.55154 1.02477 3.49528 1.1349 3.45248C1.24503 3.40968 1.35404 3.3844 1.46195 3.37665C1.56986 3.3689 1.67473 3.37372 1.77656 3.39112C2.54003 3.5616 3.15618 3.81212 3.62501 4.14269C4.09385 4.47326 4.42473 4.88593 4.61766 5.3807C4.75232 5.72719 4.82135 6.11925 4.82473 6.55687C4.82812 6.99449 4.77032 7.58945 4.65134 8.34173C4.53803 9.06947 4.48099 9.61581 4.48021 9.98075C4.47944 10.3457 4.53484 10.6717 4.64642 10.9588C4.78108 11.3053 5.01091 11.6007 5.33592 11.8449C5.66093 12.0892 6.09306 12.2943 6.63231 12.4603C6.72422 12.493 6.8043 12.5359 6.87253 12.5892C6.94076 12.6424 6.99027 12.7086 7.02105 12.7878C7.05183 12.867 7.06103 12.9519 7.04867 13.0424C7.0363 13.1329 6.9934 13.2263 6.91997 13.3228Z" fill="#2B2B2B"/>
<path d="M10.7406 11.3701C10.7064 11.4309 10.6671 11.4841 10.6226 11.5299C10.5781 11.5757 10.5222 11.6117 10.455 11.6378C10.3878 11.6639 10.3154 11.6754 10.2376 11.6722C10.1598 11.669 10.0861 11.6526 10.0165 11.6231C9.53281 11.3932 9.13567 11.1203 8.82507 10.8042C8.51447 10.4881 8.27775 10.1195 8.1149 9.69851C7.99626 9.39327 7.91718 9.05366 7.87764 8.6797C7.8381 8.30573 7.82694 7.80679 7.84415 7.18287C7.85358 6.63794 7.84704 6.22513 7.82452 5.94445C7.80199 5.66377 7.74899 5.41601 7.6655 5.20119C7.55648 4.92069 7.39205 4.6832 7.17218 4.48871C6.95232 4.29422 6.66053 4.12503 6.29682 3.98113C6.22745 3.95111 6.1654 3.90876 6.11067 3.85406C6.05594 3.79936 6.01558 3.73908 5.9896 3.67321C5.96361 3.60734 5.95293 3.54274 5.95756 3.47941C5.96219 3.41608 5.97554 3.35145 5.99762 3.28551C6.02852 3.21653 6.07041 3.15751 6.1233 3.10847C6.17618 3.05943 6.23605 3.02192 6.3029 2.99594C6.36975 2.96996 6.43723 2.95798 6.50534 2.95999C6.57345 2.96201 6.64059 2.9739 6.70676 2.99566C7.20588 3.19101 7.61733 3.43943 7.9411 3.74091C8.26488 4.04239 8.50708 4.39931 8.66773 4.81167C8.77995 5.10042 8.85386 5.42076 8.88946 5.77271C8.92506 6.12465 8.93372 6.59836 8.91546 7.19382C8.89893 7.77 8.90436 8.2047 8.93176 8.49792C8.95915 8.79114 9.01934 9.05738 9.11232 9.29662C9.22454 9.58536 9.39345 9.8403 9.61905 10.0614C9.84465 10.2826 10.1355 10.4804 10.4915 10.655C10.5525 10.6883 10.6068 10.7289 10.6543 10.7769C10.7018 10.8249 10.7384 10.882 10.764 10.9479C10.7897 11.0139 10.802 11.0828 10.8011 11.1546C10.8001 11.2264 10.7799 11.2982 10.7406 11.3701Z" fill="#2B2B2B"/>
</svg>
