<svg width="30" height="30" viewBox="0 0 30 30" fill="none" xmlns="http://www.w3.org/2000/svg">
<g clip-path="url(#clip0_499_1141)">
<path d="M15 10C14.116 10 13.2681 9.64881 12.643 9.02369C12.0179 8.39857 11.6667 7.55072 11.6667 6.66667C11.6667 5.78261 12.0179 4.93476 12.643 4.30964C13.2681 3.68452 14.116 3.33333 15 3.33333C16.85 3.33333 18.3334 4.81667 18.3334 6.66667C18.3334 7.55072 17.9822 8.39857 17.357 9.02369C16.7319 9.64881 15.8841 10 15 10ZM15 18.3333C14.116 18.3333 13.2681 17.9821 12.643 17.357C12.0179 16.7319 11.6667 15.8841 11.6667 15C11.6667 14.1159 12.0179 13.2681 12.643 12.643C13.2681 12.0179 14.116 11.6667 15 11.6667C16.85 11.6667 18.3334 13.15 18.3334 15C18.3334 15.8841 17.9822 16.7319 17.357 17.357C16.7319 17.9821 15.8841 18.3333 15 18.3333ZM15 26.6667C14.116 26.6667 13.2681 26.3155 12.643 25.6904C12.0179 25.0652 11.6667 24.2174 11.6667 23.3333C11.6667 22.4493 12.0179 21.6014 12.643 20.9763C13.2681 20.3512 14.116 20 15 20C16.85 20 18.3334 21.4833 18.3334 23.3333C18.3334 24.2174 17.9822 25.0652 17.357 25.6904C16.7319 26.3155 15.8841 26.6667 15 26.6667ZM28.3334 11.6667H23.3334V9.76667C26.2 9.01667 28.3334 6.43333 28.3334 3.33333H23.3334V1.66667C23.3334 1.22464 23.1578 0.800716 22.8452 0.488155C22.5326 0.175595 22.1087 0 21.6667 0H8.33335C7.89133 0 7.4674 0.175595 7.15484 0.488155C6.84228 0.800716 6.66669 1.22464 6.66669 1.66667V3.33333H1.66669C1.66669 6.43333 3.80002 9.01667 6.66669 9.76667V11.6667H1.66669C1.66669 14.7667 3.80002 17.35 6.66669 18.1V20H1.66669C1.66669 23.1 3.80002 25.6833 6.66669 26.4333V28.3333C6.66669 28.7754 6.84228 29.1993 7.15484 29.5118C7.4674 29.8244 7.89133 30 8.33335 30H21.6667C22.1087 30 22.5326 29.8244 22.8452 29.5118C23.1578 29.1993 23.3334 28.7754 23.3334 28.3333V26.4333C26.2 25.6833 28.3334 23.1 28.3334 20H23.3334V18.1C26.2 17.35 28.3334 14.7667 28.3334 11.6667Z" fill="#2B2B2B"/>
</g>
<defs>
<clipPath id="clip0_499_1141">
<rect width="30" height="30" fill="white"/>
</clipPath>
</defs>
</svg>
