<svg width="30" height="30" viewBox="0 0 30 30" fill="none" xmlns="http://www.w3.org/2000/svg">
<path d="M29.7376 18.615C30.4122 16.7613 29.7427 14.7461 28.2266 13.6373C28.2481 13.5846 28.2687 13.5314 28.2883 13.4775C29.1065 11.2294 27.9474 8.74351 25.6992 7.92526C24.5482 7.50633 23.3348 7.60573 22.3149 8.10423C21.854 7.06674 20.9885 6.2107 19.8374 5.79174C17.5893 4.97344 15.1034 6.1326 14.2851 8.38082C14.2771 8.40292 14.2692 8.42507 14.2616 8.44724C14.2556 8.46449 14.2498 8.48174 14.244 8.49901C12.5901 8.31979 10.9611 9.11391 10.0876 10.541L4.14433 8.37782L2.73756 9.70979L9.49488 12.1693C9.24679 13.824 9.98425 15.4794 11.3664 16.4052C11.3597 16.4221 11.3531 16.4391 11.3466 16.4562C11.3381 16.4781 11.3299 16.5001 11.3219 16.5222C10.5036 18.7704 11.6628 21.2563 13.911 22.0745C15.062 22.4934 16.2753 22.394 17.2953 21.8955C17.7562 22.933 18.6218 23.789 19.7727 24.208C22.0209 25.0263 24.5068 23.8671 25.3251 21.6189C25.3447 21.5651 25.3631 21.511 25.3805 21.4569C27.2546 21.582 29.0629 20.4686 29.7376 18.615Z" fill="#2B2B2B"/>
<path d="M1.73279 10.0345L0 9.16812V24.4165H1.73279V10.0345Z" fill="#2B2B2B"/>
</svg>
