<svg width="32" height="32" viewBox="0 0 32 32" fill="none" xmlns="http://www.w3.org/2000/svg">
<path d="M30.5 18.6673V16.625H28.4414L27.5 18.7786V18.9483L30.5 18.6673Z" fill="#2B2B2B"/>
<path d="M30.5 21.3736L28.5839 22.496L30.5 23.6179V21.3736Z" fill="#2B2B2B"/>
<path d="M30.5 26.325L27.5 26.0453V26.217L28.5521 28.625H30.5V26.325Z" fill="#2B2B2B"/>
<path d="M15.7974 30.1192L17.5788 26.0381L9.28546 26.815C10.6311 28.8069 12.9114 30.125 15.5 30.125C15.5996 30.125 15.6987 30.123 15.7974 30.1192Z" fill="#2B2B2B"/>
<path d="M9.21854 26.7143C8.99363 26.3695 8.7964 26.0054 8.63 25.625H3.5V28.625H0.5V16.625H3.5V19.625H8.645C8.8398 19.177 9.0771 18.7522 9.35191 18.3554L16.4154 22.4913L9.21854 26.7143Z" fill="#2B2B2B"/>
<path d="M9.46743 18.1933C10.2406 17.1382 11.2847 16.294 12.5 15.755V13.625H9.5V10.625H21.5V12.873L21.3302 13.625H18.5V14.9143L14.1575 11.1231L17.5796 18.9557L9.46743 18.1933Z" fill="#2B2B2B"/>
<path d="M8 0.125H23C23.825 0.125 24.5 0.8 24.5 1.625C24.5 2.45 23.825 3.125 23 3.125H18.5V4.625H17V9.125H14V4.625H12.5V3.125H8C7.175 3.125 6.5 2.45 6.5 1.625C6.5 0.8 7.175 0.125 8 0.125Z" fill="#2B2B2B"/>
<path d="M31.5 19.6013L25.7818 20.1371L28.0636 14.9169L23.7538 18.6778L22.5011 13.125L21.2473 18.6773L16.9383 14.9154L19.2198 20.1371L13.5 19.5996L18.4436 22.4942L13.501 25.3944L19.2192 24.8587L16.9387 30.0831L21.2485 26.3222L22.5013 31.875L23.7537 26.3185L28.0626 30.0804L25.7812 24.8586L31.4996 25.3919L26.556 22.4973L31.5 19.6013Z" fill="#2B2B2B"/>
</svg>
