<svg width="30" height="30" viewBox="0 0 30 30" fill="none" xmlns="http://www.w3.org/2000/svg">
<path d="M24.143 13.8571L18.2858 14.1429L21.5715 10.4286C21.8572 10 22.0001 9.28571 21.8572 8.57143C21.7144 8.14286 21.5715 7.71429 21.143 7.42857L13.4287 2.85714C12.8572 2.42857 12.0001 2.57143 11.4287 3L7.57153 6.57143C6.85725 7.28571 6.71439 8.28572 7.42868 9C8.0001 9.71429 9.14296 9.71429 9.85725 9.14286L12.7144 6.57143L15.4287 8.14286L9.42868 14.2857C9.28582 14.4286 9.28582 14.5714 9.14296 14.5714C8.42868 14.8571 7.71439 15.1429 7.14296 15.5714L9.28582 17.7143C10.0001 17.4286 10.7144 17.1429 11.4287 17.1429C14.143 17.1429 16.4287 19.4286 16.4287 22.1429C16.4287 23 16.2858 23.7143 15.8572 24.2857L18.0001 26.4286C18.8572 25.1429 19.2858 23.7143 19.2858 22.1429C19.2858 20.4286 18.7144 18.7143 17.7144 17.4286L22.4287 17L22.143 23.8571C22.0001 24.8571 22.7144 25.5714 23.7144 25.7143H23.8572C24.7144 25.7143 25.4287 25 25.5715 24.1429L25.8572 15.7143C25.8572 15.2857 25.7144 14.7143 25.4287 14.4286C25.0001 14 24.5715 13.8571 24.143 13.8571ZM23.5715 5.71429C24.3293 5.71429 25.056 5.41327 25.5918 4.87745C26.1277 4.34163 26.4287 3.6149 26.4287 2.85714C26.4287 2.09938 26.1277 1.37266 25.5918 0.836838C25.056 0.301019 24.3293 0 23.5715 0C22.8138 0 22.087 0.301019 21.5512 0.836838C21.0154 1.37266 20.7144 2.09938 20.7144 2.85714C20.7144 3.6149 21.0154 4.34163 21.5512 4.87745C22.087 5.41327 22.8138 5.71429 23.5715 5.71429ZM15.7144 28.7143C14.4287 29.5714 13.0001 30 11.4287 30C7.14296 30 3.57153 26.4286 3.57153 22.1429C3.57153 20.5714 4.0001 19.1429 4.85725 17.8571L7.0001 20C6.71439 20.7143 6.42868 21.4286 6.42868 22.1429C6.42868 24.8571 8.71439 27.1429 11.4287 27.1429C12.2858 27.1429 13.0001 27 13.5715 26.5714L15.7144 28.7143Z" fill="#2B2B2B"/>
</svg>
