<svg width="26" height="36" viewBox="0 0 26 36" fill="none" xmlns="http://www.w3.org/2000/svg">
<path d="M20 16C20 23.0228 10 36 10 36C10 36 0 23.0228 0 16C0 10.4772 4.47715 6 10 6C15.5228 6 20 10.4772 20 16Z" fill="#B2B2B2"/>
<path d="M16 14.0933C16 14.9573 15.4463 15.6577 14.7632 15.6577C14.0801 15.6577 13.5264 14.9573 13.5264 14.0933C13.5264 13.2292 14.0801 12.5288 14.7632 12.5288C15.4463 12.5288 16 13.2292 16 14.0933Z" fill="white"/>
<path d="M10.3826 16.7924L8.34722 12.3333L5 19.6666H14.4262L11.7485 13.7999L10.3826 16.7924Z" fill="white"/>
<path fill-rule="evenodd" clip-rule="evenodd" d="M22 0H20V4H16V6H20V10H22V6H26V4H22V0Z" fill="white"/>
</svg>
