<svg width="50" height="50" viewBox="0 0 50 50" fill="none" xmlns="http://www.w3.org/2000/svg">
<circle cx="25" cy="25" r="25" fill="#B2B2B2"/>
<path d="M27.933 26.9984V37.5036C27.9864 37.9036 27.853 38.3302 27.5464 38.6101C27.4231 38.7337 27.2766 38.8318 27.1153 38.8987C26.954 38.9656 26.7812 39 26.6066 39C26.4319 39 26.2591 38.9656 26.0978 38.8987C25.9365 38.8318 25.79 38.7337 25.6667 38.6101L22.987 35.9305C22.8416 35.7884 22.7311 35.6145 22.664 35.4226C22.5969 35.2306 22.5752 35.0257 22.6004 34.824V26.9984H22.5604L14.8815 17.1597C14.665 16.8818 14.5673 16.5295 14.6098 16.1797C14.6522 15.83 14.8314 15.5113 15.1081 15.2933C15.3614 15.1067 15.6414 15 15.9347 15H34.5988C34.8921 15 35.1721 15.1067 35.4254 15.2933C35.7021 15.5113 35.8812 15.83 35.9237 16.1797C35.9662 16.5295 35.8685 16.8818 35.652 17.1597L27.973 26.9984H27.933Z" fill="#2B2B2B"/>
</svg>
