<svg width="22" height="22" viewBox="0 0 22 22" fill="none" xmlns="http://www.w3.org/2000/svg">
<path fill-rule="evenodd" clip-rule="evenodd" d="M14.6989 13.3883C16.9845 10.2708 16.7183 5.86779 13.9006 3.05006C10.7889 -0.0616085 5.74388 -0.0616085 2.63221 3.05006C-0.479455 6.16173 -0.479455 11.2068 2.63221 14.3184C5.44994 17.1362 9.85292 17.4024 12.9704 15.1168C12.9905 15.1403 13.0117 15.1631 13.0338 15.1852L19.1014 21.2528C19.5801 21.7315 20.3563 21.7315 20.835 21.2528C21.3137 20.7741 21.3137 19.9979 20.835 19.5192L14.7674 13.4516C14.7453 13.4295 14.7224 13.4084 14.6989 13.3883ZM12.154 12.5718C10.0069 14.7189 6.52603 14.7188 4.37893 12.5717C2.23183 10.4246 2.23172 6.94377 4.37882 4.79667C6.52593 2.64957 10.0068 2.64967 12.1539 4.79678C14.301 6.94388 14.3011 10.4247 12.154 12.5718Z" fill="#757575"/>
</svg>
